<?xml version="1.0" encoding="UTF-8"?>
<svg width="512px" height="512px" viewBox="0 0 512 512" xmlns="http://www.w3.org/2000/svg" xmlns:xlink="http://www.w3.org/1999/xlink" version="1.1">
 <!-- Generated by Pixelmator Pro 1.8 -->
 <g id="group">
  <path id="Path" d="M319.938 14.28 C303.292 48.864 281.472 74.437 256.844 74.437 232.322 74.437 209.809 49.162 193.188 14.844 193.554 54.202 183.478 105.728 162.25 119.969 141.022 134.209 112.61 107.967 83.406 87.843 100.861 121.883 125.501 155.343 113.186 180.123 100.976 204.699 54.014 216.083 20.312 215.749 49.65 235.039 99.154 261.552 99.156 289.937 99.158 318.321 49.652 343.647 20.312 362.937 54.014 362.604 100.975 374.549 113.188 399.124 125.415 423.734 104.158 455.434 79.438 484.687 124.264 469.274 144.58 478.952 164.812 495.499 L196.562 495.499 C153.822 460.086 124.5 387.671 124.5 303.936 124.498 185.316 183.42 89.03 255.906 89.03 328.394 89.03 387.312 185.32 387.312 303.937 387.312 387.677 357.995 460.09 315.25 495.5 L342.563 495.5 C362.41 480.88 382.359 469.85 432.25 486.22 406.017 455.956 390.05 423.736 402.28 399.125 414.537 374.46 458.938 362.513 492.813 362.937 463.413 343.64 417.469 318.353 417.469 289.937 417.469 261.522 463.412 235.047 492.811 215.75 458.937 216.174 414.538 204.788 402.281 180.125 389.966 155.345 412.263 121.885 429.718 87.845 400.516 107.965 372.135 134.23 350.873 119.969 329.611 105.706 319.491 53.839 319.935 14.279 Z M250.968 108.03 C231.408 110.573 213.625 133.594 213.625 163.437 213.625 179.884 219.295 194.423 227.625 204.469 L237.781 216.687 222.188 219.624 C211.373 221.659 203.445 227.361 196.658 236.687 189.868 246.012 184.674 259.031 181.032 274.03 174.447 301.158 172.954 334.27 172.722 363.5 L208.815 363.5 209.471 372.156 218.595 494.719 294.782 494.719 302.877 372.219 303.44 363.499 337.815 363.499 C337.789 333.907 337.375 300.333 331.408 272.999 328.113 257.904 323.121 244.903 316.252 235.686 309.382 226.47 301.119 220.789 288.972 218.906 L273.032 216.436 283.096 203.843 C291.066 193.847 296.471 179.483 296.471 163.437 296.469 131.62 276.587 108.124 255.031 108.124 252.491 108.124 251.071 108.021 251.001 108.03 L250.971 108.03 Z" fill="#ffffff" fill-opacity="1" stroke="none"/>
 </g>
</svg>
