<?xml version="1.0" encoding="UTF-8"?>
<svg width="512px" height="512px" viewBox="0 0 512 512" xmlns="http://www.w3.org/2000/svg" xmlns:xlink="http://www.w3.org/1999/xlink" version="1.1">
 <!-- Generated by Pixelmator Pro 1.8 -->
 <g id="group">
  <path id="Path" d="M340.21 19.004 L337.17 25.252 343.755 38.425 334.167 31.42 325.857 48.496 331.817 61.603 321.827 56.779 318.273 64.079 335.623 93.762 301.749 163.368 C307.831 164.664 313.941 165.823 320.075 166.845 L351.797 101.655 351.837 101.65 373.774 56.572 373.734 56.578 382.08 39.425 365.896 31.55 357.558 48.683 340.21 19.001 Z M54.578 35.978 C53.944 35.98 53.311 35.998 52.678 36.035 47.611 36.331 42.588 37.775 38.008 40.595 33.455 43.399 31.638 47.362 30.181 51.427 28.724 55.493 27.793 60.104 27.086 65.472 25.673 76.21 25.27 89.948 25.6 106.132 26.258 138.502 29.936 180.495 35.523 224.478 44.345 293.928 57.533 367.572 72.053 416.271 L72.107 416.257 C72.652 418.137 73.241 420.157 73.877 422.219 L73.887 422.259 C74.249 423.407 74.612 424.541 74.974 425.657 76.672 430.807 78.651 435.912 80.931 439.565 82.788 442.538 84.694 444.325 86.101 445.03 87.506 445.733 88.545 446.043 91.581 444.96 93.338 444.334 93.333 444.35 93.931 441.705 94.531 439.058 94.436 434.07 93.409 428.088 92.345 421.898 90.429 414.708 88.381 407.228 75.188 360.738 61.849 288.886 53.379 222.211 47.849 178.674 44.234 137.084 43.596 105.768 43.276 90.11 43.726 76.981 44.932 67.823 45.536 63.243 46.356 59.653 47.126 57.505 47.506 56.445 47.91 55.858 48.066 55.622 52.21 53.266 55.771 53.162 61.302 55.228 67.112 57.398 74.438 62.515 82.25 69.883 97.873 84.618 115.45 107.873 133.263 130.895 151.076 153.918 169.055 176.735 187.571 191.428 193.551 196.175 199.646 200.126 206.001 202.802 208.591 203.476 211.963 204.242 215.431 204.707 219.041 205.189 222.661 205.251 224.874 204.855 226.514 204.562 226.932 204.269 226.99 204.23 230.38 198.067 228.926 196.218 225.62 192.832 222.303 189.434 215.467 186.842 213.185 186.689 L213.215 186.256 C208.827 184.416 203.939 181.436 198.762 177.328 183.022 164.836 165.208 142.764 147.502 119.878 129.797 96.994 112.134 73.321 94.602 56.788 85.836 48.52 77.102 41.915 67.606 38.368 63.452 36.814 59.021 35.968 54.584 35.98 Z M245.705 40.038 L237.56 64.14 246.86 85.2 233.212 77.01 229.658 87.53 250.63 114.773 240.224 145.573 C245.882 147.623 251.554 149.57 257.251 151.413 L267.678 120.553 267.715 120.543 283.765 73.048 283.723 73.06 289.829 54.988 272.776 49.226 266.676 67.279 245.706 40.036 Z M407.769 51.978 L395.204 53.678 383.178 78.388 401.484 64.886 407.767 51.978 Z M316.897 64.183 L304.65 67.46 288.605 114.955 300.853 111.677 316.898 64.183 Z M423.694 69.691 L414.887 81.841 417.149 110.415 407.495 92.04 394.27 110.28 406.208 142.52 384.47 172.507 C391.805 172.601 399.27 172.523 406.886 172.257 L420.769 153.103 420.809 153.105 450.233 112.517 450.193 112.515 461.387 97.072 446.815 86.506 435.631 101.933 Z M394.778 78.673 L381.368 82.106 373.265 98.756 385.829 97.056 394.779 78.673 Z M471.838 113.383 L467.035 120.008 479.805 120.374 484.507 113.887 471.837 113.382 Z M466.105 121.288 L442.415 153.968 455.083 154.475 461.505 145.618 455.425 142.02 464.9 140.933 475.826 125.861 466.106 121.288 Z M227.953 160.118 C226.251 163.58 224.56 166.968 222.863 170.403 228.369 172.208 233.791 175.439 238.493 180.257 245.617 187.554 249.436 200.823 242.705 213.001 239.391 218.995 233.249 221.641 228.037 222.573 222.823 223.505 217.737 223.175 213.039 222.548 206.869 221.723 201.495 220.285 198.362 219.358 196.93 222.176 195.499 224.998 194.062 227.801 244.902 254.881 303.595 250.551 361.5 238.441 373.518 222.706 385.447 206.694 397.397 190.335 334.402 191.218 280.267 179.745 227.952 160.118 Z M185.813 243.801 C159.891 293.721 133.033 341.981 102.568 390.637 105.48 401.621 109.213 413.785 111.146 425.042 112.369 432.165 113.002 438.984 111.484 445.682 109.966 452.382 104.998 459.286 97.624 461.916 90.848 464.333 83.63 463.928 78.034 461.123 72.436 458.319 68.594 453.801 65.66 449.098 65.437 448.742 65.227 448.381 65.013 448.02 62.671 451.445 60.33 454.87 57.941 458.307 72.4 483.04 97.747 495.51 120.21 494.98 210.93 418.368 279.956 342.866 344.86 259.97 291.488 269.235 235.855 270.383 185.816 243.8 Z" fill="#ffffff" fill-opacity="1" stroke="none"/>
 </g>
</svg>
