<?xml version="1.0" encoding="UTF-8"?>
<svg width="512px" height="512px" viewBox="0 0 512 512" xmlns="http://www.w3.org/2000/svg" xmlns:xlink="http://www.w3.org/1999/xlink" version="1.1">
 <!-- Generated by Pixelmator Pro 1.8 -->
 <g id="group">
  <path id="Path" d="M127 26 C114 26 99.9 32.78 89.4 43.36 78.8 53.95 72 68 72 81 L72 264 88 264 88 99 C88 81.5 92.5 66.76 102.6 56.64 112.8 46.52 127.5 42 145 42 L365 42 C382.5 42 397.2 46.52 407.4 56.64 417.5 66.76 422 81.5 422 99 L422 264 438 264 438 81 C438 68 431.2 53.95 420.6 43.36 410.1 32.78 396 26 383 26 Z M200.6 72.64 L152.6 122.6 147.1 128.6 152.2 134.9 224.8 219.6 C234.5 217.2 244.6 216 255 216 265.4 216 275.5 217.2 285.2 219.6 L357.8 134.9 362.9 128.6 357.4 122.6 309.4 72.64 Z M210.7 90 L238.2 90 218.2 120 180.7 120 Z M271.8 90 L299.3 90 329.3 120 291.8 120 Z M255 97.22 L270.2 120 239.8 120 Z M178.6 138 L216.2 138 235 203.8 Z M234.9 138 L275.1 138 255 208.2 Z M293.8 138 L331.4 138 275 203.8 Z M255 234 C211 234 173 259.5 155.1 296.6 159.4 295.7 163.9 295.2 168.5 295.1 172.6 295 176.8 295.3 181.1 295.9 197 271.3 224.6 255 256 255 287.2 255 314.8 271.2 330.7 295.7 334.4 295.2 338 295 341.5 295.1 346.1 295.2 350.6 295.7 354.9 296.6 337 259.5 299 234 255 234 Z M256 273 C233.1 273 212.7 283.7 199.8 300.5 208.5 303.4 217.7 307.6 227.5 313.2 L218.5 328.8 C190.9 313 171.9 310.8 156.9 314.7 141.9 318.5 129.8 329.2 117.8 342.9 L104.2 331.1 C112.3 321.8 121.3 312.8 132 306.1 134.6 297.7 138.2 289.6 142.5 282 L68.1 282 30.9 344 479.1 344 441.9 282 367.5 282 C371.8 289.6 375.4 297.7 378 306.2 388.7 312.8 397.7 321.8 405.8 331.1 L392.2 342.9 C380.2 329.2 368.1 318.5 353.1 314.7 338.1 310.8 319.1 313 291.5 328.8 L282.5 313.2 C292.9 307.3 302.6 302.9 311.7 300 298.8 283.5 278.7 273 256 273 Z M24 362 L24 488 486 488 486 362 Z M207 408 L303 408 303 426 207 426 Z" fill="#ffffff" fill-opacity="1" stroke="none"/>
 </g>
</svg>
