<?xml version="1.0" encoding="UTF-8"?>
<svg width="512px" height="512px" viewBox="0 0 512 512" xmlns="http://www.w3.org/2000/svg" xmlns:xlink="http://www.w3.org/1999/xlink" version="1.1">
 <!-- Generated by Pixelmator Pro 1.8 -->
 <g id="group">
  <path id="Path" d="M18.75 15.438 C78.288 127.728 161.26 217.788 251.03 308.156 L254.656 311.906 254.719 311.844 C276.546 333.774 298.759 355.767 321.124 378.094 302.268 392.907 282.15 406.294 261.186 418.406 L289.718 446.936 358.435 378.219 C400.772 405.855 434.721 441.865 462.529 484.029 L490.593 455.969 C448.123 428.476 410.853 395.763 384.563 352.093 L453.499 283.155 424.969 254.625 C413.854 276.478 400.556 296.64 385.499 315.218 341.647 271.418 299.037 229.376 255.374 189.748 255.15 189.545 254.942 189.326 254.718 189.123 182.624 123.75 107.515 64.91 18.75 15.437 Z M490.625 15.438 C407.587 61.718 336.503 116.218 268.655 176.594 L291.469 198.156 348.279 141.344 361.499 154.531 305.061 210.971 329.655 234.157 C391.457 167.237 447.255 97.237 490.625 15.437 Z M161.095 141.344 L361.655 341.874 C357.295 346.317 352.815 350.667 348.25 354.906 L147.875 154.53 Z M84.405 254.624 L55.905 283.156 124.812 352.062 C98.522 395.735 61.282 428.476 18.812 455.969 L46.875 484.029 C74.682 441.865 108.633 405.855 150.969 378.219 L219.687 446.936 248.217 418.406 C227.255 406.293 207.137 392.906 188.28 378.093 206.145 360.263 223.89 342.66 241.437 325.123 L216.594 299.468 161.124 354.935 C156.559 350.697 152.11 346.315 147.75 341.873 L203.594 286.029 179.064 260.655 C160.784 278.511 142.462 296.715 123.906 315.249 108.838 296.662 95.526 276.491 84.406 254.624 Z" fill="#ffffff" fill-opacity="1" stroke="none"/>
 </g>
</svg>
