<?xml version="1.0" encoding="UTF-8"?>
<svg width="512px" height="512px" viewBox="0 0 512 512" xmlns="http://www.w3.org/2000/svg" xmlns:xlink="http://www.w3.org/1999/xlink" version="1.1">
 <!-- Generated by Pixelmator Pro 1.8 -->
 <g id="group">
  <path id="Path" d="M132.813 39.28 C69.838 39.28 19.406 90.5 19.406 153.47 19.406 216.442 69.838 266.875 132.812 266.875 144.839 266.875 156.45 265.04 167.344 261.625 166.907 260.667 166.5 259.693 166.094 258.719 L96.314 137.843 88.124 124.218 104.124 123.873 243.094 123.873 C230.024 75.211 185.551 39.277 132.814 39.279 Z M380.656 39.28 C327.916 39.28 283.984 75.21 271.094 123.875 L425.47 123.875 417.28 138.155 346.156 261.469 C346.152 261.476 346.16 261.489 346.156 261.499 346.143 261.529 346.139 261.563 346.126 261.593 357 265.027 368.596 266.873 380.656 266.873 443.631 266.873 494.812 216.441 494.812 153.468 494.812 90.496 443.632 39.278 380.656 39.278 Z M120.126 142.594 L159.219 210.156 C162.346 182.622 177.011 158.446 198.219 142.594 L120.124 142.594 Z M245.531 142.594 C207.001 148.044 177.345 181.19 177.345 221.219 177.345 232.371 179.627 242.991 183.782 252.624 L184.846 254.468 C221.716 235.742 247.002 197.705 247.002 153.468 247.002 149.798 246.812 146.173 246.472 142.592 L245.532 142.592 Z M267.781 142.594 C267.447 146.174 267.251 149.8 267.251 153.469 267.251 197.581 291.999 235.531 328.471 254.312 L330.221 251.28 C334.021 242.005 336.126 231.86 336.126 221.22 336.126 181.19 306.469 148.045 267.938 142.594 L267.782 142.594 Z M315.251 142.594 C336.385 158.392 350.993 182.458 354.189 209.874 L393.126 142.594 315.25 142.594 Z M256.751 251.874 C233.707 251.874 212.331 258.724 194.501 270.5 194.506 270.506 194.496 270.525 194.501 270.53 209.047 288.86 231.515 300.625 256.721 300.625 281.978 300.625 304.487 288.802 319.031 270.405 301.111 258.697 279.723 251.875 256.751 251.875 Z M179.657 282.219 C157.287 303.083 143.345 332.926 143.345 366.029 143.345 429.003 193.775 479.437 256.751 479.437 319.726 479.437 370.907 429.003 370.907 366.03 370.907 332.935 356.747 303.115 334.187 282.25 L265.127 401.97 256.627 415.937 248.814 401.969 Z M217.657 311.155 L256.627 378.499 295.532 311.279 C283.612 316.462 270.48 319.343 256.722 319.343 242.852 319.343 229.652 316.413 217.658 311.155 Z" fill="#ffffff" fill-opacity="1" stroke="none"/>
 </g>
</svg>
