<svg width="512" height="512" viewBox="0 0 512 512" xmlns="http://www.w3.org/2000/svg" xmlns:xlink="http://www.w3.org/1999/xlink">
    <g id="Group">
        <g id="g1">
            <path id="Path" fill="#ffffff" stroke="none" d="M 133.813004 38.279999 C 70.837997 38.279999 20.406 89.5 20.406 152.470001 C 20.406 215.442017 70.837997 265.875 133.811996 265.875 C 145.839005 265.875 157.449997 264.040009 168.343994 260.625 C 167.906998 259.666992 167.5 258.692993 167.093994 257.718994 L 97.314003 136.843018 L 89.124001 123.218018 L 105.124001 122.872986 L 244.093994 122.872986 C 231.024002 74.210999 186.550995 38.277008 133.813995 38.278992 Z"/>
            <path id="path1" fill="#ffffff" stroke="none" d="M 381.656006 38.279999 C 328.915985 38.279999 284.984009 74.209991 272.093994 122.875 L 426.470001 122.875 L 418.279999 137.154999 L 347.156006 260.468994 C 347.152008 260.476013 347.160004 260.489014 347.156006 260.498993 C 347.143005 260.528992 347.139008 260.562988 347.126007 260.592987 C 358 264.027008 369.596008 265.872986 381.656006 265.872986 C 444.631012 265.872986 495.812012 215.440979 495.812012 152.468018 C 495.812012 89.496002 444.631989 38.278015 381.656006 38.278015 Z"/>
            <path id="path2" fill="#ffffff" stroke="none" d="M 121.125999 141.593994 L 160.218994 209.156006 C 163.345993 181.622009 178.011002 157.445984 199.218994 141.593994 L 121.124001 141.593994 Z"/>
            <path id="path3" fill="#ffffff" stroke="none" d="M 246.531006 141.593994 C 208.001007 147.044006 178.345001 180.190002 178.345001 220.218994 C 178.345001 231.371002 180.626999 241.990997 184.781998 251.623993 L 185.845993 253.468018 C 222.716003 234.742004 248.001999 196.705017 248.001999 152.468018 C 248.001999 148.798004 247.811996 145.173004 247.472 141.59198 L 246.531998 141.59198 Z"/>
            <path id="path4" fill="#ffffff" stroke="none" d="M 268.781006 141.593994 C 268.446991 145.174011 268.251007 148.799988 268.251007 152.468994 C 268.251007 196.580994 292.998993 234.531006 329.471008 253.312012 L 331.221008 250.279999 C 335.020996 241.005005 337.126007 230.859985 337.126007 220.220001 C 337.126007 180.190002 307.468994 147.044983 268.937988 141.593994 L 268.782013 141.593994 Z"/>
            <path id="path5" fill="#ffffff" stroke="none" d="M 316.251007 141.593994 C 337.38501 157.391998 351.993011 181.458008 355.188995 208.873993 L 394.126007 141.593994 L 316.25 141.593994 Z"/>
            <path id="path6" fill="#921012" stroke="none" d="M 257.751007 250.873993 C 234.707001 250.873993 213.330994 257.723999 195.501007 269.5 C 195.505997 269.506012 195.496002 269.524994 195.501007 269.529999 C 210.046997 287.859985 232.514999 299.625 257.721008 299.625 C 282.977997 299.625 305.487 287.802002 320.031006 269.404999 C 302.110992 257.696991 280.722992 250.875 257.751007 250.875 Z"/>
            <path id="path7" fill="#921012" stroke="none" d="M 180.656998 281.218994 C 158.287003 302.083008 144.345001 331.925995 144.345001 365.028992 C 144.345001 428.002991 194.774994 478.437012 257.751007 478.437012 C 320.726013 478.437012 371.907013 428.002991 371.907013 365.029999 C 371.907013 331.934998 357.747009 302.11499 335.187012 281.25 L 266.127014 400.970001 L 257.627014 414.937012 L 249.813995 400.968994 L 180.656998 281.218994 Z"/>
            <path id="path8" fill="#921012" stroke="none" d="M 218.656998 310.154999 L 257.627014 377.498993 L 296.532013 310.278992 C 284.612 315.462006 271.480011 318.342987 257.721985 318.342987 C 243.852005 318.342987 230.651993 315.412994 218.658005 310.154999 Z"/>
        </g>
    </g>
</svg>
