<?xml version="1.0" encoding="UTF-8"?>
<svg width="512px" height="512px" viewBox="0 0 512 512" xmlns="http://www.w3.org/2000/svg" xmlns:xlink="http://www.w3.org/1999/xlink" version="1.1">
 <!-- Generated by Pixelmator Pro 1.8 -->
 <g id="group">
  <path id="Path" d="M255.23 30.742 C237.51 30.742 219.791 34.056 203.787 40.686 190.153 46.333 178.302 59.058 168.568 70.379 163.689 76.066 159.038 81.944 154.625 88 L177.325 88 C186.365 77.972 198.661 62.664 210.675 57.314 237.795 46.081 272.667 46.081 299.787 57.314 313.686 65.904 323.828 76.494 333.137 88 L355.836 88 C351.424 81.944 346.773 76.066 341.895 70.379 332.161 59.059 320.31 46.333 306.675 40.686 290.672 34.056 272.95 30.742 255.23 30.742 Z M143.23 106 C127 108.136 104.568 129 104.23 145 L104.23 145.02 C104.121 198.012 129.871 230.65 162.031 251.442 183.408 265.262 207.799 273.302 228.231 277.157 L228.231 232 282.231 232 282.231 277.154 C302.638 273.299 326.989 265.26 348.341 251.444 380.475 230.651 406.232 198 406.232 145 406.109 129 381.214 107.275 367.232 106 Z M103.998 216.178 L104.225 488 406.223 488 405.998 216.82 C393.853 238.078 376.752 254.501 358.121 266.557 333.044 282.783 305.451 291.684 282.231 295.574 L282.231 330 228.231 330 228.231 295.576 C204.989 291.687 177.361 282.788 152.258 266.559 133.424 254.382 116.152 237.751 103.998 216.178 Z M246.23 250 L246.23 312 264.23 312 264.23 250 Z M122.23 356 L236.23 356 236.23 470 122.23 470 Z M274.23 356 L388.23 356 388.23 470 274.23 470 Z M140.23 374 L140.23 394.203 C154.861 415.415 168.113 424 179.23 424 190.348 424 203.6 415.415 218.23 394.205 L218.23 374 Z M292.23 374 L292.23 394.203 C306.861 415.415 320.113 424 331.23 424 342.348 424 355.6 415.415 370.23 394.205 L370.23 374 Z M140.23 422.736 L140.23 452 218.23 452 218.23 422.736 C206.114 435.094 193.202 442 179.23 442 165.259 442 152.346 435.094 140.23 422.736 Z M292.23 422.736 L292.23 452 370.23 452 370.23 422.736 C358.114 435.094 345.202 442 331.23 442 317.259 442 304.346 435.094 292.23 422.736 Z" fill="#ffffff" fill-opacity="1" stroke="none"/>
 </g>
</svg>
