<svg width="512" height="512" viewBox="0 0 512 512" xmlns="http://www.w3.org/2000/svg" xmlns:xlink="http://www.w3.org/1999/xlink">
    <g id="Group">
        <path id="Path" fill="#ffffff" stroke="none" d="M 182.200012 235.690002 L 119.369995 152.97998 L 76.51001 185.539978 L 139.339996 268.290009 Z M 195.059998 226.160004 L 128.25 138.160004 L 173.25 104.01001 L 240.059998 192.01001 Z M 222.540009 128.380005 L 241.839996 167.950012 L 184.839996 92.950012 L 227.350006 60.649994 L 263.589996 108.359985 Z M 243.279999 55.140015 L 289.919983 19.709991 L 331.919983 75.019989 L 278.25 101.190002 Z M 136.279999 290.660004 L 275.279999 187.950012 L 285.200012 188.859985 L 280.640015 190.859985 L 218.480011 329.290009 L 235 331.540009 L 292.679993 203.039978 L 332.679993 185.339996 L 336.679993 154.5 L 297.27002 173.919983 L 260.910004 170.589996 L 243.910004 135.76001 L 354.809998 81.669983 L 435.48999 194.179993 L 334.399994 346.670013 L 357.100006 492.290009 L 171 492.290009 L 171 372.619995 L 135.709991 323.690002 L 125 275.769989 Z"/>
    </g>
</svg>
