<?xml version="1.0" encoding="UTF-8"?>
<svg width="512px" height="512px" viewBox="0 0 512 512" xmlns="http://www.w3.org/2000/svg" xmlns:xlink="http://www.w3.org/1999/xlink" version="1.1">
 <!-- Generated by Pixelmator Pro 1.8 -->
 <g id="group">
  <path id="Path" d="M255.3 22.84 C240.4 22.84 226.5 31.12 215.8 45.92 205.1 60.72 198.2 81.85 198.2 105.4 198.2 128.9 205.1 150 215.8 164.8 226.5 179.7 240.4 187.9 255.3 187.9 270.2 187.9 284.1 179.7 294.8 164.8 305.5 150 312.4 128.9 312.4 105.4 312.4 81.85 305.5 60.72 294.8 45.92 284.1 31.12 270.2 22.84 255.3 22.84 Z M306.6 178.9 C293.6 195.3 275.5 205.9 255.3 205.9 235.1 205.9 217.1 195.3 204 179 199.6 179.8 195.3 180.6 190.9 181.6 214.9 249 232 297.3 266.6 346.4 277.3 345 290 343.5 306.9 341.4 L310.7 301 C311.5 292.3 316.3 285.3 322.7 280.4 L316.3 251.8 333.9 247.8 339.5 272.9 C345.8 271.4 352.4 271 359.1 271.2 369.8 271.6 380.5 273.8 389.9 277.9 388 254.4 383.2 229.2 379.2 201.7 375.9 199.4 369.6 196.1 361.5 193.2 351.4 189.5 338.8 185.9 325.6 182.9 319.3 181.5 312.9 180.1 306.6 178.9 Z M173.5 185.7 C168 187.2 162.7 188.7 157.7 190.3 170.3 235.8 208.1 363 259.5 435.9 280 435.8 299.9 434.8 319.5 433.1 231.9 349.7 209.5 286.8 173.5 185.7 Z M140.9 196.5 C136.4 198.6 132.9 200.6 130.9 202.1 106.8 282.4 99.7 396.1 114.2 491.2 L163.3 491.2 C156.9 426 150.8 352.1 172.6 297 157.5 255.2 146.8 217.8 140.9 196.5 Z M355.3 289.1 C347.9 289.2 341.1 290.5 336.5 292.8 331.2 295.4 329 298 328.5 302.8 L323.3 357.4 316.2 358.3 C300.7 360.2 288.9 361.7 278.9 362.9 295.8 384.4 316.5 406.4 343.1 430.7 348.1 430.1 353.1 429.5 358.1 428.8 368.3 427.5 374.9 423.3 380.5 417.1 386.2 411 390.4 402.6 394 393.9 408 359.7 402.7 319.4 396 304.9 394.6 301.7 390 297.5 383 294.5 376.1 291.4 367.1 289.4 358.5 289.1 Z M182.8 324.1 C178.8 340.3 176.8 358.2 176 377 181.9 371.5 189.5 366.5 198.7 362.3 193.1 349.7 187.7 336.8 182.8 324.1 Z M206.3 378.6 C185.8 387.8 178.1 400.3 177.7 409.6 177.1 421.3 186.3 432.6 207.7 434.2 217.9 434.9 227.9 435.4 237.7 435.7 226.4 418.3 215.9 398.8 206.3 378.6 Z M177.2 442.1 C178.2 458.6 179.7 475.1 181.3 491.2 L343.6 491.2 C347.6 476.1 352 461.6 356.4 447.1 308.9 453.2 260 456 206.3 452 194.9 451.1 185 447.5 177.2 442.1 Z" fill="#ffffff" fill-opacity="1" stroke="none"/>
 </g>
</svg>
