<?xml version="1.0" encoding="UTF-8"?>
<svg width="512px" height="512px" viewBox="0 0 512 512" xmlns="http://www.w3.org/2000/svg" xmlns:xlink="http://www.w3.org/1999/xlink" version="1.1">
 <!-- Generated by Pixelmator Pro 1.8 -->
 <g id="group">
  <path id="Path" d="M328.3 100.64 L288.6 111.1 C258.4 137.2 225.9 162 191.9 186.2 L185.2 207.2 151.1 214.5 C128.5 229.8 105.5 244.9 82.28 260 L202.6 278.4 416.5 111.3 C388.8 107.5 359.6 103.8 328.3 100.64 Z M431.7 122.2 L370.3 170.1 327.3 223.2 282.3 238.9 217.3 289.6 238.1 404.7 C303.7 350.1 365.7 295.3 425.1 241.6 L419.5 210.4 461.6 208.5 C469.9 201.1 478.1 193.6 486.2 186.2 Z M60.58 278.6 C39.43 318.5 28.57 349.2 23.75 374.4 32.96 375.5 42.05 376.6 51.03 377.9 L67.79 347.3 73.31 381.3 C126.6 389.9 176.4 401.8 225.5 413.4 L198.6 295.8 132.6 285.7 Z" fill="#ffffff" fill-opacity="1" stroke="none"/>
 </g>
</svg>
