<?xml version="1.0" encoding="UTF-8"?>
<svg width="512px" height="512px" viewBox="0 0 512 512" xmlns="http://www.w3.org/2000/svg" xmlns:xlink="http://www.w3.org/1999/xlink" version="1.1">
 <!-- Generated by Pixelmator Pro 1.8 -->
 <g id="group">
  <path id="Path" d="M347.125 21.78 L205.375 42.125 228.563 81.219 C254.203 79.639 275.043 90.897 284.188 106.719 289.138 115.283 290.414 126.226 285.125 135.219 281.659 141.109 275.81 145.402 268.375 148.312 L285.781 177.592 333.345 170.592 339.407 169.718 342.627 174.904 C357.625 198.884 377.063 206.497 384.657 205.279 388.455 204.671 389.559 203.859 390.407 199.843 391.255 195.825 390.307 187.491 384.001 175.813 L377.657 164.093 390.877 162.155 426.532 156.905 347.126 21.78 Z M187.095 44.75 L96.625 57.72 98.845 61.5 211.625 253.938 301.845 241.281 246.062 147.313 238.906 135.283 252.75 133.283 C263.27 131.771 267.58 128.218 269.03 125.751 270.482 123.284 270.515 120.446 268 116.095 262.97 107.393 246.703 97.078 224.812 100.22 L218.625 101.125 215.437 95.75 185.657 45.594 187.094 44.75 Z M94.25 90.656 L70.344 185.562 102 238.875 104.28 242.688 102.72 246.875 C94.582 268.882 100.316 294.34 109.094 307.813 113.482 314.549 118.441 317.313 119.844 317.438 120.544 317.5 120.671 317.588 121.75 316.688 122.83 315.788 124.616 313.53 126.28 309.281 L133.187 291.689 142.969 307.845 183.312 374.315 277.905 360.407 302.905 260.001 208 273.313 201.812 274.188 198.656 268.781 94.25 90.657 Z M436.75 174.281 L405.78 178.845 C409.15 187.975 410.257 196.251 408.688 203.689 406.46 214.239 397.595 222.121 387.625 223.719 368.975 226.709 347.495 214.593 330.345 189.939 L296.094 195 323.904 241.813 325.874 245.125 324.936 248.845 297.906 357.469 333 352.31 C340.904 321.577 359.995 304.382 379.75 303.685 390.33 303.312 400.745 308.185 407.125 317.123 411.568 323.348 413.925 331.319 414.25 340.373 L439.656 336.623 466.812 228.843 444.5 187.5 436.75 174.28 Z M63.875 211.25 L44.78 286.97 147.53 461.5 167.125 383.72 134.625 330.125 C134.312 330.413 134.045 330.759 133.719 331.031 129.351 334.673 123.535 336.514 118.155 336.031 107.395 335.068 99.588 327.443 93.435 318.001 81.775 300.103 75.465 272.181 83.843 244.907 L63.873 211.251 Z M380.405 322.375 C370.705 322.717 355.307 332.96 349.688 362.405 L348.438 368.938 341.875 369.906 184.062 393.062 160.094 488.125 159.064 492.155 409.5 456.22 434.688 356.25 405.688 360.53 393.063 362.375 395.093 349.781 C396.831 339.081 394.807 332.065 391.906 328.001 389.006 323.937 385.256 322.205 380.406 322.376 Z" fill="#ffffff" fill-opacity="1" stroke="none"/>
 </g>
</svg>
