<?xml version="1.0" encoding="UTF-8"?>
<svg width="512px" height="512px" viewBox="0 0 512 512" xmlns="http://www.w3.org/2000/svg" xmlns:xlink="http://www.w3.org/1999/xlink" version="1.1">
 <!-- Generated by Pixelmator Pro 1.8 -->
 <g id="group">
  <path id="Path" d="M255 29 L223 157 C191 141 159 109 127 61 127 109 127 157 159 189 127 206 95 189 63 157 63 189 63 237 111 269 79 285 47 269 31 237 31 285 47 333 79 365 63 381 31 365 15 349 15 413 63 461 127 493 L203.8 493 220.5 424.4 203.3 338.3 105.4 343.3 C105.4 343.3 125.7 268.1 140.3 239.6 145.3 230 147.5 221.6 160.3 221.3 171.6 221.3 180.7 231.1 180.7 243.2 180.7 255.2 171.6 265 160.3 265 158 265 155.7 264.5 153.7 263.7 L148.6 310.5 C178.2 301.6 205.5 291.7 232.6 279.6 232.6 279.5 232.5 279.4 232.5 279.3 226.3 270.5 222.1 257.8 222.1 243.6 222.1 229.5 226.2 216.8 232.5 207.9 238.6 199 246.6 194.2 255 194.2 263.5 194.2 271.5 199 277.6 207.9 283.8 216.8 287.8 229.5 287.8 243.6 287.8 257.8 283.8 270.5 277.6 279.3 277.5 279.6 277.1 280 277 280.2 304.3 292.3 333.1 300.8 361.3 310.5 L356.3 263.7 C354.1 264.5 352 265 349.6 265 338.4 265 329.3 255.2 329.3 243.2 329.3 231.1 338.4 221.3 349.6 221.3 362.4 221.6 364.8 230 369.6 239.6 384.4 268.1 404.6 343.3 404.6 343.3 L306.7 338.3 289.5 424.4 306.2 493 383 493 C447 461 495 413 495 349 479 365 447 381 431 365 463 333 479 285 479 237 463 269 431 285 399 269 447 237 447 189 447 157 415 189 383 205 351 189 383 157 383 109 383 61 351 109 319 141 287 157 Z" fill="#ffffff" fill-opacity="1" stroke="none"/>
 </g>
</svg>
