<?xml version="1.0" encoding="UTF-8"?>
<svg width="512px" height="512px" viewBox="0 0 512 512" xmlns="http://www.w3.org/2000/svg" xmlns:xlink="http://www.w3.org/1999/xlink" version="1.1">
 <!-- Generated by Pixelmator Pro 2.0.8 -->
 <g id="group">
  <path id="Path" d="M249.334 22.717 C230.694 25.141 213.657 46.291 212.291 74.207 L212.291 74.227 C212.234 75.413 212.194 76.607 212.194 77.817 212.194 94.179 217.852 108.644 226.136 118.635 L236.263 130.848 220.671 133.781 C209.921 135.806 202.049 141.483 195.298 150.759 193.013 153.899 190.914 157.466 188.988 161.379 131.448 154.939 91.078 140.319 91.078 123.427 91.078 106.064 133.725 91.444 193.828 85.457 193.615 82.947 193.505 80.4 193.505 77.821 L193.505 77.819 C193.505 76.979 193.529 76.145 193.552 75.309 97.122 82.079 26.254 104.459 26.252 131.019 26.25 156.349 90.714 177.879 180.326 185.689 180.136 186.431 179.932 187.154 179.75 187.905 177.39 197.625 175.7 208.125 174.482 218.935 174.472 218.935 174.462 218.935 174.452 218.937 174.034 222.59 173.672 226.277 173.357 229.983 L173.407 229.978 C172.091 245.755 171.635 261.858 171.514 276.928 L207.408 276.928 209.523 305.328 C141.283 300.334 91.079 284.324 91.079 265.485 91.079 252.242 115.909 240.595 154.349 233.155 154.649 229.099 155.009 225.04 155.425 220.993 79.005 230.346 26.255 250.161 26.253 273.079 26.251 301.249 105.963 324.722 211.351 329.847 L217.291 409.617 C227.791 412.265 242.131 413.779 256.308 413.685 270.098 413.593 283.543 411.975 292.758 409.685 L298.021 329.839 C403.329 324.699 482.956 301.234 482.956 273.079 482.956 250.066 429.76 230.184 352.826 220.879 353.13 224.899 353.383 228.926 353.581 232.949 392.464 240.379 417.546 252.119 417.546 265.485 417.546 284.325 367.742 300.335 299.638 305.329 L301.508 276.927 335.688 276.927 C335.676 261.814 335.561 245.657 334.655 229.833 334.665 229.833 334.675 229.835 334.687 229.837 334.473 226.15 334.215 222.485 333.905 218.851 L333.885 218.849 C332.945 207.692 331.518 196.865 329.339 186.882 329.249 186.477 329.155 186.079 329.064 185.676 418.582 177.85 482.957 156.332 482.957 131.02 482.957 104.233 410.881 81.688 313.187 75.133 313.212 76.028 313.24 76.921 313.24 77.821 313.24 80.321 313.136 82.791 312.936 85.228 374.126 91.064 417.546 105.838 417.546 123.428 417.546 140.233 377.913 154.783 321.022 161.276 319.012 156.993 316.762 153.126 314.26 149.771 307.43 140.604 299.197 134.961 287.12 133.089 L271.207 130.619 281.244 118.029 C288.172 109.339 293.156 97.314 294.301 83.761 L294.303 83.761 C294.466 81.811 294.553 79.831 294.553 77.823 294.553 77.053 294.531 76.291 294.505 75.533 294.49 75.053 294.472 74.575 294.448 74.099 L294.446 74.099 C292.966 44.354 273.939 22.799 253.37 22.799 250.842 22.799 249.404 22.712 249.34 22.719 L249.337 22.719 Z M194.54 355.822 C97.43 362.477 25.967 384.932 25.967 411.622 25.967 443.554 128.21 469.437 254.334 469.437 380.458 469.437 482.7 443.555 482.7 411.623 482.7 385.015 411.68 362.619 315.03 355.887 L314.375 365.817 C374.738 371.872 417.449 386.773 417.449 404.211 417.449 427.021 344.417 445.509 254.329 445.509 164.241 445.509 91.209 427.019 91.209 404.212 91.209 386.679 134.389 371.71 195.279 365.719 L194.539 355.824 Z" fill="#ffffff" fill-opacity="1" stroke="none"/>
 </g>
</svg>
