<?xml version="1.0" encoding="UTF-8"?>
<svg width="512px" height="512px" viewBox="0 0 512 512" xmlns="http://www.w3.org/2000/svg" xmlns:xlink="http://www.w3.org/1999/xlink" version="1.1">
 <!-- Generated by Pixelmator Pro 1.8 -->
 <g id="group">
  <path id="Path" d="M118.1 26 L118.1 26.1 C93.1 29.3 71 58.1 71 94.9 71 115.3 78.1 133.3 88.5 145.8 L98.7 158 83 160.9 C69.3 163.5 59.2 170.8 50.8 182.4 42.3 193.9 35.9 209.9 31.4 228.2 23.2 261.8 21.5 302.9 21.3 338.7 L65.3 338.7 77.2 497.1 173.5 497.1 184 338.7 225.9 338.7 C225.9 302.5 225.6 260.9 218.1 227 214.1 208.5 207.9 192.6 199.4 181.1 190.8 169.7 180.2 162.4 164.9 160.1 L148.9 157.6 159 145 C169 132.5 175.7 114.8 175.7 94.9 175.7 55.7 150.9 26.1 123.3 26.1 120.4 26.1 118.6 26 118.1 26 Z M439 34 C421.8 34 408 47.77 408 65 408 82.23 421.8 96 439 96 456.2 96 470 82.23 470 65 470 47.77 456.2 34 439 34 Z M310 56 L310 104 207 104 207 122 310 122 310 280 255 280 255 298 310 298 310 408 207 408 207 426 310 426 310 458 390.8 458 C390.3 455.1 390 452.1 390 449 390 445.9 390.3 442.9 390.8 440 L328 440 328 298 390.8 298 C390.3 295.1 390 292.1 390 289 390 285.9 390.3 282.9 390.8 280 L328 280 328 74 390.8 74 C390.3 71.08 390 68.07 390 65 390 61.93 390.3 58.92 390.8 56 Z M439 258 C421.8 258 408 271.8 408 289 408 306.2 421.8 320 439 320 456.2 320 470 306.2 470 289 470 271.8 456.2 258 439 258 Z M439 418 C421.8 418 408 431.8 408 449 408 466.2 421.8 480 439 480 456.2 480 470 466.2 470 449 470 431.8 456.2 418 439 418 Z" fill="#ffffff" fill-opacity="1" stroke="none"/>
 </g>
</svg>
