<?xml version="1.0" encoding="UTF-8"?>
<svg width="512px" height="512px" viewBox="0 0 512 512" xmlns="http://www.w3.org/2000/svg" xmlns:xlink="http://www.w3.org/1999/xlink" version="1.1">
 <!-- Generated by Pixelmator Pro 1.8 -->
 <g id="group">
  <path id="Path" d="M323.344 68.25 C278.869 87.564 232.314 94.203 186.688 70.188 L186.688 109.718 C232.548 132.211 277.175 130.744 323.344 109.438 Z M132.72 75.22 C125.91 75.255 119.272 75.598 112.844 76.22 109.719 100.28 118.961 128.315 137.469 150 144.699 145.065 151.217 139.72 156.999 134.28 150.849 114.71 146.706 95.363 145.374 75.562 143.234 75.467 141.05 75.292 138.936 75.25 136.854 75.21 134.771 75.208 132.718 75.22 Z M378.063 75.22 C376.009 75.208 373.927 75.21 371.843 75.25 369.736 75.292 367.573 75.468 365.437 75.563 364.107 95.363 359.962 114.711 353.812 134.281 359.595 139.721 366.112 145.066 373.344 150.001 391.851 128.316 401.094 100.281 397.969 76.221 391.527 75.597 384.883 75.256 378.061 75.221 Z M93.75 79.062 C80.052 81.924 67.726 86.429 57.344 92.655 57.151 121.923 70.36 152.607 90.5 169.875 L89.28 171.28 C100.867 168.62 111.494 164.586 121.156 159.656 101.976 136.186 91.664 106.894 93.75 79.062 Z M417.063 79.062 C419.149 106.892 408.836 136.185 389.656 159.655 399.319 164.585 409.946 168.619 421.531 171.28 L420.314 169.875 C440.46 152.602 453.644 121.902 453.439 92.625 443.063 86.41 430.753 81.921 417.064 79.062 Z M39.406 107.062 C26.088 121.498 18.526 141.469 18.876 169.468 36.763 174.156 53.338 175.494 68.562 174.404 52.492 156.294 42.166 132.114 39.406 107.06 Z M471.406 107.062 C468.646 132.114 458.322 156.296 442.25 174.405 457.475 175.495 474.05 174.157 491.938 169.468 492.288 141.468 484.724 121.498 471.406 107.061 Z M337.686 123.468 L336.813 123.904 C312.789 135.741 288.389 142.671 263.906 144.184 L263.906 358.279 C337.496 332.269 386.719 277.234 386.719 214.029 386.719 200.919 384.579 188.143 380.561 175.874 362.898 166.857 348.095 155.374 336.561 143.811 L332.468 139.718 334.31 134.248 C335.515 130.625 336.63 127.031 337.685 123.468 Z M173.25 123.904 C174.268 127.326 175.344 130.774 176.5 134.248 L178.313 139.718 174.25 143.811 C161.826 156.267 145.63 168.651 126.125 177.936 122.481 189.573 120.562 201.659 120.562 214.029 120.562 277.433 171.012 332.739 245.219 358.624 L245.219 144.28 C221.124 143.026 197.034 136.4 173.249 123.906 Z M156 327.72 C150.067 332.536 144.604 337.547 139.5 342.72 161.533 360.205 190.07 378.287 219 386.094 224.045 380.374 229.61 374.93 235.78 369.781 Z M353.906 327.72 L274.126 369.78 C280.474 375.08 286.184 380.693 291.344 386.594 320.35 379.214 349.078 361.292 371.406 343.75 366.019 338.216 360.229 332.852 353.906 327.72 Z M126.936 356.625 C120.686 364.162 114.991 371.985 109.686 380 132.914 398.444 163.384 417.554 193.936 424.594 197.616 416.804 201.836 409.239 206.719 402 176.259 392.29 148.519 373.92 126.937 356.625 Z M383.906 357.719 C362.076 375.049 334.149 393.249 303.594 402.593 308.398 409.786 312.561 417.299 316.188 425.03 346.776 418.532 377.411 399.644 400.968 381.156 395.708 373.132 390.094 365.273 383.906 357.719 Z M99.72 395.936 C93.867 405.759 88.326 415.806 82.75 425.968 110.986 453.153 142.006 468.263 178.03 471.748 180.36 461.674 183.195 451.754 186.687 442.092 153.615 433.794 123.241 414.462 99.719 395.936 Z M410.906 397.156 C387.106 415.696 356.561 434.739 323.406 442.562 326.821 452.075 329.586 461.839 331.876 471.749 367.9 468.264 398.92 453.154 427.156 425.969 421.81 416.223 416.492 406.591 410.906 397.155 Z" fill="#ffffff" fill-opacity="1" stroke="none"/>
 </g>
</svg>
