<?xml version="1.0" encoding="UTF-8"?>
<svg width="512px" height="512px" viewBox="0 0 512 512" xmlns="http://www.w3.org/2000/svg" xmlns:xlink="http://www.w3.org/1999/xlink" version="1.1">
 <!-- Generated by Pixelmator Pro 1.8 -->
 <g id="group">
  <path id="Path" d="M244.148 163.898 L172.422 197.248 172.56 316.845 310.361 173.747 253.626 159.523 Z M235.842 234.741 L231.963 244.327 200.265 238.487 203.53 230.118 C206.619 227.835 209.561 225.361 212.341 222.711 216.213 219.168 219.823 215.35 223.145 211.286 226.134 207.563 228.88 203.651 231.366 199.575 233.775 195.858 235.851 191.936 237.571 187.855 L246.746 189.492 Q240.635 204.058 226.945 218.468 218.274 227.364 213.481 230.622 Z M78.574 159.392 L23.328 173.585 160.011 317 160.011 197.248 88.307 163.898 Z M91.061 192.556 C96.739 191.516 102.58 193.153 106.891 196.992 109.843 199.635 112.32 202.764 114.212 206.245 L105.681 207.99 C104.776 206.209 103.589 204.585 102.167 203.181 Q98.786 200.001 94.823 200.668 L94.505 200.73 C92.922 200.979 91.618 202.103 91.138 203.631 90.58 205.182 90.983 207.253 92.31 209.743 Q94.971 214.699 99.36 215.63 C101.214 215.924 103.106 215.879 104.944 215.498 L106.162 215.273 109.939 222.331 Q105.766 223.262 104.571 224.472 102.478 226.519 104.851 230.948 C105.757 232.735 107.129 234.243 108.822 235.315 110.246 236.239 111.964 236.596 113.638 236.315 L113.91 236.261 Q117.012 235.632 117.222 233.158 C117.392 231.482 116.795 229.412 115.43 226.954 L123.504 225.294 C124.69 227.617 125.588 230.075 126.18 232.615 126.53 234.659 126.386 236.757 125.761 238.735 125.263 240.138 124.365 241.364 123.178 242.263 121.613 243.348 119.824 244.069 117.943 244.373 L117.167 244.513 C113.274 245.176 109.27 244.559 105.758 242.752 101.791 240.742 98.565 237.524 96.544 233.562 Q94.179 229.133 94.846 225.612 C95.012 224.381 95.592 223.243 96.49 222.385 L96.444 222.385 Q95.241 222.587 91.853 220.757 C88.225 218.706 85.292 215.619 83.429 211.892 Q80.008 205.524 81.289 199.893 82.568 194.262 90.208 192.719 Z M17 162.347 L87.943 86.493 C88.253 86.462 88.565 86.462 88.874 86.493 L88.975 86.493 Q91.022 86.718 90.828 88.913 C90.524 90.814 89.789 92.621 88.68 94.195 86.995 96.824 84.845 99.124 82.335 100.981 Q79.784 102.897 72.524 107.186 64.179 112.08 59.774 116.818 C56.962 119.709 54.447 122.874 52.266 126.266 L73.727 128.717 79.063 120.263 65.389 118.712 C66.351 117.794 67.389 116.958 68.491 116.214 Q70.043 115.167 73.998 112.872 L78.186 110.428 C81.147 108.759 83.962 106.845 86.601 104.704 89.794 102.015 92.546 98.843 94.76 95.304 Q99.221 88.23 98.995 83.593 C98.871 81.017 97.622 79.397 95.288 78.698 L147.33 23.158 80.745 140.273 77.023 146.834 Z M256.503 115.407 Q254.014 111.848 254.052 109.854 C254.052 108.528 254.828 107.768 256.379 107.605 L256.751 107.605 C258.369 107.612 259.945 108.124 261.257 109.071 263.278 110.482 265.013 112.263 266.368 114.321 Q268.773 117.765 268.788 119.798 C268.788 121.163 268.013 121.922 266.508 122.124 L266.121 122.124 C264.481 122.106 262.891 121.562 261.583 120.573 259.583 119.192 257.86 117.448 256.503 115.431 Z M185.149 23.112 L239.897 81.568 239.122 81.568 C238.874 81.568 238.486 81.568 238.168 81.638 Q233.065 82.22 232.739 86.113 232.413 90.007 236.02 95.079 C237.257 96.805 238.649 98.414 240.177 99.888 242.124 101.737 244.358 103.256 246.793 104.386 Q245.412 106.271 246.335 109.59 C247.142 112.191 248.379 114.637 249.996 116.827 252.648 120.659 256.02 123.938 259.924 126.483 Q265.205 129.919 270.402 129.702 270.93 129.702 271.457 129.617 277.18 128.972 277.475 124.482 C277.535 123.418 277.434 122.351 277.173 121.317 L315.448 162.199 255.728 147.238 251.749 140.258 Z M249.205 91.542 L250.803 93.249 C251.097 93.621 251.392 94.024 251.687 94.412 252.866 96.103 253.463 97.515 253.463 98.67 253.463 99.825 252.788 100.485 251.423 100.64 L251.089 100.64 C249.667 100.644 248.28 100.199 247.126 99.368 245.535 98.308 244.165 96.949 243.093 95.366 241.806 93.52 241.178 92.038 241.216 90.922 241.255 89.805 241.945 89.161 243.295 89.007 L243.636 89.007 C245.038 88.995 246.408 89.423 247.553 90.232 248.139 90.622 248.692 91.06 249.205 91.543 Z M166.215 17 L88.913 150.713 166.216 186.615 243.567 150.713 Z M165.439 152.954 Q154.007 152.954 149.409 144.95 144.809 136.946 144.809 122.132 144.809 107.318 149.408 99.275 154.007 91.232 165.44 91.225 176.873 91.225 181.472 99.267 186.071 107.31 186.071 122.124 186.071 136.938 181.472 144.942 176.872 152.946 165.44 152.954 Z M172.312 106.123 Q173.94 111.32 173.94 122.132 173.94 132.447 172.312 137.915 170.683 143.383 165.44 143.344 160.197 143.344 158.506 137.915 156.815 132.486 156.815 122.132 156.815 111.32 158.506 106.123 160.197 100.927 165.44 100.927 170.667 100.919 172.296 106.116 Z" fill="#ffffff" fill-opacity="1" stroke="none"/>
 </g>
 <g id="d10">
  <path id="Path-1" d="M423.148 342.898 L351.422 376.248 351.56 495.845 489.361 352.747 432.626 338.523 Z M414.842 413.741 L410.963 423.327 379.265 417.487 382.53 409.118 C385.619 406.835 388.561 404.361 391.341 401.711 395.213 398.168 398.823 394.35 402.145 390.286 405.134 386.563 407.88 382.651 410.366 378.575 412.775 374.858 414.851 370.936 416.571 366.855 L425.746 368.492 Q419.635 383.058 405.945 397.468 397.274 406.364 392.481 409.622 Z M257.574 338.392 L202.328 352.585 339.011 496 339.011 376.248 267.307 342.898 Z M270.061 371.556 C275.739 370.516 281.58 372.153 285.891 375.992 288.843 378.635 291.32 381.764 293.212 385.245 L284.681 386.99 C283.776 385.209 282.589 383.585 281.167 382.181 Q277.786 379.001 273.823 379.668 L273.505 379.73 C271.922 379.979 270.618 381.103 270.138 382.631 269.58 384.182 269.983 386.253 271.31 388.743 Q273.971 393.699 278.36 394.63 C280.214 394.924 282.106 394.879 283.944 394.498 L285.162 394.273 288.939 401.331 Q284.766 402.262 283.571 403.472 281.478 405.519 283.851 409.948 C284.757 411.735 286.129 413.243 287.822 414.315 289.246 415.239 290.964 415.596 292.638 415.315 L292.91 415.261 Q296.012 414.632 296.222 412.158 C296.392 410.482 295.795 408.412 294.43 405.954 L302.504 404.294 C303.69 406.617 304.588 409.075 305.18 411.615 305.53 413.659 305.386 415.757 304.761 417.735 304.263 419.138 303.365 420.364 302.178 421.263 300.613 422.349 298.824 423.069 296.943 423.373 L296.167 423.513 C292.274 424.176 288.27 423.559 284.758 421.752 280.791 419.742 277.565 416.524 275.544 412.562 Q273.179 408.133 273.846 404.612 C274.012 403.381 274.592 402.243 275.49 401.385 L275.444 401.385 Q274.241 401.587 270.853 399.757 C267.225 397.706 264.292 394.619 262.429 390.892 Q259.008 384.524 260.289 378.893 261.568 373.262 269.208 371.719 Z M196 341.347 L266.943 265.493 C267.253 265.462 267.565 265.462 267.874 265.493 L267.975 265.493 Q270.022 265.718 269.828 267.913 C269.524 269.814 268.789 271.621 267.68 273.195 265.995 275.824 263.845 278.124 261.335 279.981 Q258.784 281.897 251.524 286.186 243.179 291.08 238.774 295.818 C235.962 298.709 233.447 301.874 231.266 305.266 L252.727 307.717 258.063 299.263 244.389 297.712 C245.351 296.794 246.389 295.958 247.491 295.214 Q249.043 294.167 252.998 291.872 L257.186 289.428 C260.147 287.759 262.962 285.845 265.601 283.704 268.794 281.015 271.546 277.843 273.76 274.304 Q278.221 267.23 277.995 262.593 C277.871 260.017 276.622 258.397 274.288 257.698 L326.33 202.158 259.745 319.273 256.023 325.834 Z M435.503 294.407 Q433.014 290.848 433.052 288.854 C433.052 287.528 433.828 286.768 435.379 286.605 L435.751 286.605 C437.369 286.612 438.945 287.124 440.257 288.071 442.278 289.482 444.013 291.263 445.368 293.321 Q447.773 296.765 447.788 298.798 C447.788 300.163 447.013 300.922 445.508 301.124 L445.121 301.124 C443.481 301.106 441.891 300.562 440.583 299.573 438.583 298.192 436.86 296.448 435.503 294.431 Z M364.149 202.112 L418.897 260.568 418.122 260.568 C417.874 260.568 417.486 260.568 417.168 260.638 Q412.065 261.22 411.739 265.113 411.413 269.007 415.02 274.079 C416.257 275.805 417.649 277.414 419.177 278.888 421.124 280.737 423.358 282.256 425.793 283.386 Q424.412 285.271 425.335 288.59 C426.142 291.191 427.379 293.637 428.996 295.827 431.648 299.659 435.02 302.938 438.924 305.483 Q444.205 308.919 449.402 308.702 449.93 308.702 450.457 308.617 456.18 307.972 456.475 303.482 C456.535 302.418 456.434 301.351 456.173 300.317 L494.448 341.199 434.728 326.238 430.749 319.258 Z M428.205 270.542 L429.803 272.249 C430.097 272.621 430.392 273.024 430.687 273.412 431.866 275.103 432.463 276.515 432.463 277.67 432.463 278.825 431.788 279.485 430.423 279.64 L430.089 279.64 C428.667 279.644 427.28 279.199 426.126 278.368 424.535 277.308 423.165 275.949 422.093 274.366 420.806 272.52 420.178 271.038 420.216 269.922 420.255 268.805 420.945 268.161 422.295 268.007 L422.636 268.007 C424.038 267.995 425.408 268.424 426.553 269.232 427.139 269.622 427.692 270.06 428.205 270.543 Z M345.215 196 L267.913 329.713 345.216 365.615 422.567 329.713 Z M344.439 331.954 Q333.007 331.954 328.409 323.95 323.809 315.946 323.809 301.132 323.809 286.318 328.408 278.275 333.007 270.232 344.44 270.225 355.873 270.225 360.472 278.267 365.071 286.31 365.071 301.124 365.071 315.938 360.472 323.942 355.872 331.946 344.44 331.954 Z M351.312 285.123 Q352.94 290.32 352.94 301.132 352.94 311.447 351.312 316.915 349.683 322.383 344.44 322.344 339.197 322.344 337.506 316.915 335.815 311.486 335.815 301.132 335.815 290.32 337.506 285.123 339.197 279.927 344.44 279.927 349.667 279.919 351.296 285.116 Z" fill="#ffffff" fill-opacity="1" stroke="none"/>
 </g>
</svg>
