<?xml version="1.0" encoding="UTF-8"?>
<svg width="512px" height="512px" viewBox="0 0 512 512" xmlns="http://www.w3.org/2000/svg" xmlns:xlink="http://www.w3.org/1999/xlink" version="1.1">
 <!-- Generated by Pixelmator Pro 2.0.5 -->
 <path id="Path" d="M512 256 L512 480 C512 497.673 497.673 512 480 512 L32 512 C14.327 512 0 497.673 0 480 L0 32 C0 14.327 14.327 0 32 0 L480 0 C497.673 0 512 14.327 512 32 Z" fill="#000000" fill-opacity="1" stroke="none"/>
 <g id="group">
  <path id="Path-1" d="M157.771 44.358 C146.49 44.325 135.93 46.932 124.215 52.839 L124.218 52.839 C80.82 74.74 43.569 134.261 41.784 183.919 L79.447 196.731 C83.344 141.03 121.798 81.198 170.821 56.457 L170.823 56.457 C174.804 54.45 178.763 52.712 182.69 51.237 L162.656 44.532 C161.009 44.422 159.382 44.361 157.77 44.358 Z M211.177 62.529 C201.747 62.448 190.628 65.313 178.396 71.478 L178.399 71.474 C134.992 93.38 97.737 152.936 96.006 202.366 L236.843 250.282 C240.321 194.284 278.96 133.848 328.294 108.951 L328.296 108.951 328.298 108.948 C332.171 106.997 336.023 105.298 339.847 103.849 L218.761 63.316 C216.374 62.828 213.848 62.554 211.176 62.531 Z M368.65 115.02 C359.222 114.939 348.103 117.802 335.872 123.966 L335.868 123.967 C292.148 146.034 254.665 206.293 253.44 255.928 L295.025 270.076 C298.547 214.107 337.167 153.729 386.471 128.848 390.541 126.793 394.607 125.016 398.648 123.529 L374.759 115.533 C372.811 115.218 370.778 115.038 368.652 115.02 Z M425.849 134.832 C416.609 134.916 405.964 137.85 394.049 143.863 351.607 165.283 315.05 222.691 311.823 271.438 L468.918 205.084 C468.555 169.975 459.24 149.911 446.945 141.111 444.833 139.599 442.565 138.359 440.15 137.387 L440.141 137.418 435.879 135.992 C432.747 135.194 429.404 134.798 425.85 134.831 Z M41.71 201.66 L41.678 370.395 79.114 383.422 79.114 214.388 41.71 201.662 Z M95.935 220.108 L95.935 389.274 236.589 438.207 236.589 267.959 210.441 259.062 210.441 366.549 119.492 335.875 119.492 228.122 Z M468.733 223.423 L312.19 289.543 312.19 459.855 468.731 393.702 468.731 223.422 Z M136.314 233.846 L136.314 323.799 193.622 343.128 193.622 253.341 136.315 233.846 Z M164.49 259.764 C173.224 259.764 180.305 266.844 180.305 275.579 180.305 281.285 177.272 286.271 172.739 289.052 L172.739 314.729 155.918 314.729 155.918 288.857 C151.564 286.04 148.675 281.151 148.675 275.579 148.675 266.844 155.755 259.764 164.49 259.764 Z M253.407 273.681 L253.407 444.058 295.37 458.656 295.37 287.959 253.406 273.681 Z" fill="#ffffff" fill-opacity="1" stroke="none"/>
 </g>
</svg>
