<?xml version="1.0" encoding="UTF-8"?>
<svg width="512px" height="512px" viewBox="0 0 512 512" xmlns="http://www.w3.org/2000/svg" xmlns:xlink="http://www.w3.org/1999/xlink" version="1.1">
 <!-- Generated by Pixelmator Pro 1.8 -->
 <g id="group">
  <path id="Path" d="M108.902 36.87 L37.762 96.154 180.042 96.154 108.902 36.869 Z M396.902 68.87 L325.762 128.154 468.042 128.154 396.902 68.869 Z M227.73 85.403 L118.83 176.153 336.63 176.153 Z M53.902 114.153 L53.902 176.153 90.712 176.153 163.902 115.161 163.902 114.153 Z M76.902 128.153 L92.902 128.153 92.902 146.153 76.902 146.153 Z M341.902 146.153 L341.902 157.116 364.902 176.282 364.902 160.152 380.902 160.152 380.902 178.152 367.146 178.152 367.25 178.239 386.348 194.153 341.902 194.153 341.902 208.153 419.902 208.153 419.902 169.153 437.902 169.153 437.902 208.153 451.902 208.153 451.902 146.153 Z M147.557 194.153 L147.557 214.233 171.652 194.153 Z M175.715 194.153 L280.815 281.735 307.902 259.161 307.902 194.153 Z M250.398 208.153 L286.133 208.153 286.133 242.153 250.398 242.153 Z M173.684 215.893 L29.37 336.153 318 336.153 173.686 215.893 Z M371.73 229.403 L294.873 293.45 326.916 320.154 480.63 320.154 371.73 229.404 Z M348.516 338.153 L348.619 338.239 367.714 354.153 295.466 354.153 295.466 431.62 355.901 431.62 355.901 368.154 405.901 368.154 405.901 431.621 451.901 431.621 451.901 338.155 348.516 338.155 Z M69.902 354.153 L69.902 477.13 195.902 477.13 195.902 400.154 245.902 400.154 245.902 477.131 277.467 477.131 277.467 354.155 69.902 354.155 Z M99.902 384.153 L149.902 384.153 149.902 434.153 99.902 434.153 Z" fill="#ffffff" fill-opacity="1" stroke="none"/>
 </g>
</svg>
