<?xml version="1.0" encoding="UTF-8"?>
<svg width="512px" height="512px" viewBox="0 0 512 512" xmlns="http://www.w3.org/2000/svg" xmlns:xlink="http://www.w3.org/1999/xlink" version="1.1">
 <!-- Generated by Pixelmator Pro 1.8 -->
 <g id="group">
  <path id="Path" d="M248.03 21.844 C232.714 21.887 217.273 25.324 204.03 31.031 196.29 30.439 188.78 30.121 181.53 30.126 90.91 30.199 38.448 76.699 17.562 156.439 L17.562 496.657 206.875 496.657 C201.695 442.127 212.115 382.591 234.155 342.032 205.273 337.059 176.243 333.835 148.312 332.815 L140.656 332.533 139.436 324.941 C129.956 265.971 129.308 205.901 161.5 148.471 L177.813 157.597 C149.636 207.863 148.813 260.152 156.843 314.659 238.603 318.739 327.053 339.926 396.219 369.503 418.944 363.773 430.035 339.817 438.061 304.003 L406.093 325.628 396.063 281.19 350.373 312.097 339.593 264.377 296.343 293.597 285.655 246.284 241.843 275.91 226.843 209.504 297.687 161.598 308.374 208.942 352.187 179.317 362.967 227.035 406.217 197.785 416.249 242.192 461.905 211.317 469.593 245.38 C490.441 218.4 504.817 178.845 483.999 160.1 458.553 137.186 431.739 116.76 404.593 99.536 398.027 74.604 343.566 22.423 310.843 51.662 296.403 30.248 272.371 21.782 248.03 21.85 Z M250.22 43.469 C268.322 43.469 282.813 58.019 282.813 76.249 282.813 79.439 282.36 82.499 281.531 85.405 278.447 79.165 272.028 74.843 264.595 74.843 254.159 74.843 245.689 83.313 245.689 93.749 245.689 99.969 248.707 105.462 253.345 108.905 252.315 109.002 251.275 109.03 250.22 109.03 232.116 109.03 217.594 94.48 217.594 76.25 217.594 58.02 232.116 43.47 250.219 43.47 Z" fill="#ffffff" fill-opacity="1" stroke="none"/>
 </g>
</svg>
