<?xml version="1.0" encoding="UTF-8"?>
<svg width="512px" height="512px" viewBox="0 0 512 512" xmlns="http://www.w3.org/2000/svg" xmlns:xlink="http://www.w3.org/1999/xlink" version="1.1">
 <!-- Generated by Pixelmator Pro 2.0.1 -->
 <path id="Path" d="M512 256 L512 480 C512 497.673 497.673 512 480 512 L32 512 C14.327 512 0 497.673 0 480 L0 32 C0 14.327 14.327 0 32 0 L480 0 C497.673 0 512 14.327 512 32 Z" fill="#000000" fill-opacity="1" stroke="none"/>
 <g id="group">
  <path id="Path-1" d="M146.032 60.052 C89.354 60.052 43.965 106.15 43.965 162.823 43.965 219.498 89.354 264.887 146.031 264.887 156.855 264.887 167.305 263.236 177.11 260.163 176.716 259.3 176.35 258.424 175.985 257.547 L113.183 148.759 105.812 136.496 120.212 136.186 245.285 136.186 C233.522 92.39 193.496 60.049 146.033 60.051 Z M369.09 60.052 C321.624 60.052 282.086 92.389 270.485 136.188 L409.423 136.188 402.052 149.039 338.04 260.022 C338.037 260.028 338.044 260.04 338.04 260.049 338.029 260.076 338.025 260.107 338.013 260.134 347.8 263.224 358.236 264.886 369.09 264.886 425.768 264.886 471.831 219.497 471.831 162.821 471.831 106.146 425.769 60.05 369.09 60.05 Z M134.613 153.035 L169.797 213.84 C172.611 189.06 185.81 167.301 204.897 153.035 L134.612 153.035 Z M247.478 153.035 C212.801 157.94 186.111 187.771 186.111 223.797 186.111 233.834 188.164 243.392 191.904 252.062 L192.861 253.721 C226.044 236.868 248.802 202.634 248.802 162.821 248.802 159.518 248.631 156.256 248.325 153.033 L247.479 153.033 Z M267.503 153.035 C267.202 156.257 267.026 159.52 267.026 162.822 267.026 202.523 289.299 236.678 322.124 253.581 L323.699 250.852 C327.119 242.505 329.013 233.374 329.013 223.798 329.013 187.771 302.322 157.94 267.644 153.035 L267.504 153.035 Z M310.226 153.035 C329.246 167.253 342.394 188.912 345.27 213.587 L380.313 153.035 310.225 153.035 Z M257.576 251.387 C236.836 251.387 217.598 257.552 201.551 268.15 201.555 268.155 201.546 268.172 201.551 268.177 214.642 284.674 234.864 295.262 257.549 295.262 280.28 295.262 300.538 284.622 313.628 268.064 297.5 257.527 278.251 251.388 257.576 251.388 Z M188.191 278.697 C168.058 297.475 155.51 324.333 155.51 354.126 155.51 410.803 200.898 456.193 257.576 456.193 314.253 456.193 360.316 410.803 360.316 354.127 360.316 324.341 347.572 297.503 327.268 278.725 L265.114 386.473 257.464 399.043 250.433 386.472 Z M222.391 304.74 L257.464 365.349 292.479 304.851 C281.751 309.516 269.932 312.109 257.55 312.109 245.067 312.109 233.187 309.472 222.392 304.74 Z" fill="#9013fe" fill-opacity="1" stroke="none"/>
 </g>
</svg>
