<?xml version="1.0" encoding="UTF-8"?>
<svg width="512px" height="512px" viewBox="0 0 512 512" xmlns="http://www.w3.org/2000/svg" xmlns:xlink="http://www.w3.org/1999/xlink" version="1.1">
 <!-- Generated by Pixelmator Pro 2.0.1 -->
 <path id="Path" d="M512 256 L512 480 C512 497.673 497.673 512 480 512 L32 512 C14.327 512 0 497.673 0 480 L0 32 C0 14.327 14.327 0 32 0 L480 0 C497.673 0 512 14.327 512 32 Z" fill="#000000" fill-opacity="1" stroke="none"/>
 <g id="group">
  <path id="Path-1" d="M42.869 40.365 L42.869 136.552 181.103 210.127 117.513 40.365 42.868 40.365 Z M141.7 40.365 L248.912 170.698 253.637 40.365 Z M290.425 40.365 L327.24 160.206 381.888 40.365 Z M416.594 40.365 L403.46 180.71 470.735 118.16 470.735 40.365 Z M42.869 175.956 L42.869 263.735 132.756 272.678 42.871 175.958 Z M411.335 212.237 C395.239 212.153 376.367 220.401 360.99 235.778 356.216 240.554 352.147 245.676 348.785 250.938 264.421 200.11 51.842 319.638 187.685 421.74 L80.302 421.74 56.481 464.688 287.95 464.688 208.3 371.762 C230.143 347.725 269.012 332.429 295.6 331.206 308.014 371.794 328.238 433.353 360.175 464.688 L414.935 464.688 C376.172 422.795 346.05 366.507 341.19 302.828 342.645 305.741 344.538 308.399 346.872 310.733 363.668 327.529 397.222 321.216 421.824 296.613 446.426 272.011 452.739 238.457 435.943 221.661 429.643 215.361 420.991 212.29 411.334 212.238 Z M42.869 316.3 L42.869 369.907 112.787 348.362 42.868 316.3 Z" fill="#ffffff" fill-opacity="1" stroke="none"/>
 </g>
</svg>
