<?xml version="1.0" encoding="UTF-8"?>
<svg width="512px" height="512px" viewBox="0 0 512 512" xmlns="http://www.w3.org/2000/svg" xmlns:xlink="http://www.w3.org/1999/xlink" version="1.1">
 <!-- Generated by Pixelmator Pro 1.8 -->
 <g id="group">
  <path id="Path" d="M368.1 22.22 C348.9 22.22 331.9 32.85 320.2 48.69 308.5 64.53 301.6 85.72 301.6 109 301.6 130.1 307.3 149.5 317.1 164.7 311.4 166.3 306.1 168.6 301.2 171.3 291 162.8 278.6 157.7 265.3 157.7 246 157.7 229 168.3 217.3 184.1 212.6 190.5 208.7 197.7 205.7 205.6 200.9 203.2 195.8 201.3 190.2 200 199.6 184.9 205 165.9 205 145.3 205 122.1 198.1 100.87 186.4 85.03 174.7 69.19 157.7 58.53 138.5 58.53 119.3 58.53 102.3 69.19 90.56 85.03 78.87 100.87 72 122.1 72 145.3 72 166.4 77.69 185.8 87.47 201.1 55.4 210.2 37.18 238.2 28.03 271.1 18.24 306.3 17.16 348.4 17.16 386.7 L17.16 396.1 62.66 396.1 69.44 495.4 88.19 495.4 80.91 388.9 76.81 308.9 58.16 309.9 61.63 377.4 35.97 377.4 C36.21 342.2 37.94 305.3 46.06 276.2 54.84 244.6 69.38 223.4 97.31 218 L102 217.9 C112.3 226.7 124.9 232.1 138.5 232.1 152.6 232.1 165.4 226.4 175.9 217.1 L180.5 217.1 C188.3 218.3 194.9 220.6 200.6 223.8 199.4 230.4 198.7 237.3 198.7 244.4 198.7 265.5 204.4 284.9 214.2 300.2 182.1 309.3 163.9 337.4 154.8 370.2 145 405.4 143.9 447.5 143.9 485.8 L143.9 495.2 C165.6 494.9 186.7 495.4 208.2 495.4 L207.7 488.1 203.6 408.1 184.9 409 188.3 476.5 162.7 476.5 C163 441.3 164.7 404.4 172.8 375.3 181.5 343.7 196.1 322.6 223.9 317.1 L228.8 317 C239.1 325.8 251.6 331.2 265.2 331.2 279.3 331.2 292.2 325.5 302.7 316.2 L307.1 316.2 C322.5 318.6 333.2 325.1 341.6 334.8 350.1 344.5 356.1 358 360.1 374 367.4 403.5 367.8 440.9 367.8 476.5 L344.4 476.5 347.9 409 329.2 408.1 325 490.1 324.7 495.4 C345.5 495.4 368 495.1 386.6 495.2 L386.6 485.8 C386.6 447.7 387.1 405.2 378.2 369.5 373.8 351.7 366.9 335.4 355.8 322.5 346.1 311.4 333.1 303.1 317 299.1 326.4 284 331.7 265 331.7 244.4 331.7 221.9 325.3 201.2 314.2 185.6 318.1 183.8 322.3 182.5 326.9 181.6 L331.6 181.6 C341.9 190.4 354.5 195.8 368.1 195.8 382.2 195.8 395.1 190 405.5 180.8 L410.1 180.7 C425.5 183.2 436.1 189.6 444.5 199.3 453 209.1 459 222.6 463 238.6 470.3 268 470.7 305.4 470.7 341 L447.3 341 450.8 273.6 432.1 272.6 428 352.3 419.4 495.4 438.1 495.4 446.3 359.7 489.4 359.7 489.4 350.4 C489.4 312.2 490 269.7 481.1 234.1 476.6 216.2 469.7 199.9 458.6 187.1 449 175.9 436 167.6 419.8 163.6 429.2 148.5 434.6 129.6 434.6 109 434.6 85.72 427.7 64.53 416 48.69 404.4 33.4 384.5 22.56 368.1 22.22 Z M368.1 40.91 C380.5 40.91 392 47.6 401 59.78 410 71.97 415.9 89.45 415.9 109 415.9 128.5 410 146 401 158.2 392 170.4 380.5 177.1 368.1 177.1 355.8 177.1 344.2 170.4 335.2 158.2 326.2 146 320.3 128.5 320.3 109 320.3 89.45 326.2 71.97 335.2 59.78 344.2 47.6 355.8 40.91 368.1 40.91 Z M138.5 77.22 C150.9 77.22 162.4 83.94 171.4 96.12 180.4 108.3 186.3 125.8 186.3 145.3 186.3 164.8 180.4 182.3 171.4 194.5 162.4 206.7 150.9 213.4 138.5 213.4 126.1 213.4 114.6 206.7 105.6 194.5 96.63 182.3 90.69 164.8 90.69 145.3 90.69 125.8 96.63 108.3 105.6 96.13 114.6 83.94 126.1 77.22 138.5 77.22 Z M336.3 99.56 L336.3 118.2 358.8 118.2 358.8 99.56 Z M377.4 99.56 L377.4 118.2 399.9 118.2 399.9 99.56 Z M106.7 135.9 L106.7 154.6 129.2 154.6 129.2 135.9 Z M147.8 135.9 L147.8 154.6 170.3 154.6 170.3 135.9 Z M265.3 176.3 C277.6 176.3 289.1 183 298.1 195.2 307.1 207.4 313.1 224.9 313.1 244.4 313.1 264 307.1 281.4 298.1 293.6 289.1 305.8 277.6 312.5 265.3 312.5 252.9 312.5 241.3 305.8 232.3 293.6 223.4 281.4 217.4 264 217.4 244.4 217.4 224.9 223.4 207.4 232.3 195.2 241.3 183 252.9 176.3 265.3 176.3 Z M233.5 235 L233.5 253.7 255.9 253.7 255.9 235 Z M274.6 235 L274.6 253.7 297 253.7 297 235 Z" fill="#ffffff" fill-opacity="1" stroke="none"/>
 </g>
</svg>
