<?xml version="1.0" encoding="UTF-8"?>
<svg width="512px" height="512px" viewBox="0 0 512 512" xmlns="http://www.w3.org/2000/svg" xmlns:xlink="http://www.w3.org/1999/xlink" version="1.1">
 <!-- Generated by Pixelmator Pro 1.8 -->
 <g id="group">
  <path id="Path" d="M253.1 19.63 C171.7 19.63 21.67 175.6 81.47 320.4 89.47 345.7 109.3 370.8 130.6 397.5 155 428.1 182.2 460.7 199.3 494.4 L219.8 494.4 C201.7 454.6 171.3 418.5 145.2 385.8 117.8 351.5 96.47 320.6 96.47 297.9 96.57 288.8 98.7 279.8 102 271.6 125 210.2 216 151.9 250.5 136.6 L254.1 134.6 258 135.9 C318.9 156.8 387.3 202.6 412 271.6 416.1 283.3 417.9 289.6 417.6 298.9 417.1 314.7 393.1 353.6 362.6 387.6 333.5 420 300.2 455.3 282.6 494.3 L303.1 494.3 C319.9 462.1 349.3 430.3 376.4 400.1 399.6 374.5 421.7 350.1 431.3 325.3 484.2 201.3 332.1 19.63 253.1 19.63 Z M253.9 155.1 C215.2 176.6 168.8 207.3 140.2 243.3 149.9 326.3 199.2 389.4 258.5 389.4 317.7 389.4 366.8 326.7 376.7 244.1 347.8 202 298.7 171.2 253.9 155.1 Z M195.6 238.1 L198 238.1 C211.1 238.2 224.1 240.8 237.1 245.5 220.3 286.1 178.1 287.5 159 245.5 171.2 240.7 183.4 238.3 195.6 238.1 Z M320.5 238.1 C333.5 238 346.5 240.4 359.6 245.5 340.4 287.5 298.3 286.1 281.4 245.5 294.5 240.8 307.5 238.2 320.5 238.1 Z" fill="#ffffff" fill-opacity="1" stroke="none"/>
 </g>
</svg>
