<?xml version="1.0" encoding="UTF-8"?>
<svg width="512px" height="512px" viewBox="0 0 512 512" xmlns="http://www.w3.org/2000/svg" xmlns:xlink="http://www.w3.org/1999/xlink" version="1.1">
 <!-- Generated by Pixelmator Pro 2.0.5 -->
 <g id="group">
  <path id="Path" d="M256 17.108 C180.27 17.108 118.878 78.5 118.878 154.23 118.933 177.48 124.9 200.337 130.458 210.492 L256 494.892 375.982 220.648 375.919 220.648 C387.189 200.324 393.107 177.468 393.121 154.23 393.122 78.5 331.73 17.108 256 17.108 Z M256 85.668 C274.184 85.668 291.622 92.892 304.48 105.749 317.337 118.607 324.561 136.046 324.56 154.23 324.56 172.413 317.337 189.852 304.479 202.709 291.622 215.567 274.183 222.79 256 222.79 237.817 222.79 220.378 215.567 207.521 202.709 194.663 189.852 187.44 172.413 187.44 154.23 187.44 136.047 194.663 118.608 207.521 105.751 220.378 92.893 237.817 85.67 256 85.67 Z" fill="#7ed321" fill-opacity="1" stroke="#000000" stroke-width="8" stroke-opacity="1" stroke-linejoin="round" stroke-linecap="round"/>
 </g>
</svg>
