<?xml version="1.0" encoding="UTF-8"?>
<svg width="512px" height="512px" viewBox="0 0 512 512" xmlns="http://www.w3.org/2000/svg" xmlns:xlink="http://www.w3.org/1999/xlink" version="1.1">
 <!-- Generated by Pixelmator Pro 2.0.1 -->
 <path id="Path" d="M512 256 L512 480 C512 497.673 497.673 512 480 512 L32 512 C14.327 512 0 497.673 0 480 L0 32 C0 14.327 14.327 0 32 0 L480 0 C497.673 0 512 14.327 512 32 Z" fill="#000000" fill-opacity="1" stroke="none"/>
 <g id="group">
  <path id="Path-1" d="M256 56.002 C210.28 133.24 164.38 184.9 118.93 231.43 210.1 196.15 301.9 196.15 393.07 231.43 347.62 184.9 301.72 133.24 256 56.002 Z M256 220.72 C246.64 220.72 237.28 221.17 227.83 221.98 233.68 315.76 184.27 417.19 85.369 463.9 L426.64 463.9 C327.73 417.19 278.32 315.76 284.17 221.98 274.72 221.17 265.36 220.72 256 220.72 Z" fill="#ffffff" fill-opacity="1" stroke="none"/>
 </g>
</svg>
