<?xml version="1.0" encoding="UTF-8"?>
<svg width="512px" height="512px" viewBox="0 0 512 512" xmlns="http://www.w3.org/2000/svg" xmlns:xlink="http://www.w3.org/1999/xlink" version="1.1">
 <!-- Generated by Pixelmator Pro 2.0.1 -->
 <path id="Path" d="M512 256 L512 480 C512 497.673 497.673 512 480 512 L32 512 C14.327 512 0 497.673 0 480 L0 32 C0 14.327 14.327 0 32 0 L480 0 C497.673 0 512 14.327 512 32 Z" fill="#000000" fill-opacity="1" stroke="none"/>
 <g id="group">
  <path id="Path-1" d="M239.26 44.257 C233.77 82.147 215.14 102.037 181.75 101.857 210.19 105.907 239.17 109.057 239.26 159.52 238.72 118.03 261.31 102.757 296.95 101.857 262.75 100.507 238.54 87.187 239.26 44.257 Z M354.28 54.679 C346.09 67.504 335.56 73.84 319.27 63.931 332.68 74.542 336.01 86.215 328.45 99.004 336.46 88.942 344.2 78.547 363.55 89.761 347.53 80.707 346.63 68.548 354.28 54.679 Z M79.312 63.121 C76.882 80.041 68.512 88.861 53.662 88.771 66.352 90.571 79.222 92.011 79.312 114.439 79.042 95.989 89.122 89.131 104.962 88.771 89.752 88.141 78.952 82.201 79.312 63.121 Z M413.5 85.252 C411.07 102.172 402.7 110.992 387.85 110.902 400.54 112.702 413.41 114.142 413.5 136.57 413.23 118.12 423.31 111.262 439.15 110.902 423.94 110.272 413.14 104.332 413.5 85.252 Z M133.87 130.36 C119.65 178.69 90.886 173.56 62.455 169.42 94.54 178.6 106.87 202.99 101.452 240.88 112.846 199.48 139.81 193.54 172.93 201.82 139.09 190.93 121.72 169.96 133.87 130.36 Z M302.17 134.86 C294.25 190.3 266.8 219.46 217.93 219.19 259.51 225.04 302.17 229.72 302.17 303.52 301.45 242.95 334.48 220.54 386.59 219.19 336.64 217.21 301.18 197.68 302.17 134.86 Z M425.29 169.33 C413.5 188.77 398.74 195.25 380.56 187.42 395.23 196.15 410.26 204.61 398.65 232.06 407.92 209.38 423.76 206.23 443.38 214.06 425.11 205.33 414.94 192.55 425.29 169.33 Z M71.23 244.48 C79.474 259.51 78.097 271.57 66.181 280.48 77.395 274.27 88.546 267.61 102.1 285.52 90.787 270.94 94.72 259.42 107.149 249.52 94.621 258.25 82.426 259.96 71.23 244.48 Z M194.71 244.75 C204.97 268.87 194.26 281.92 175.18 290.56 195.61 282.91 211.9 286.51 220.99 310.09 209.56 281.47 225.31 273.01 240.52 264.28 221.62 271.93 206.5 265.09 194.71 244.75 Z M399.91 256.09 C375.97 314.32 338.08 338.62 284.89 324.85 328.63 342.67 373.81 359.5 353.65 439.96 369.4 373.63 411.61 358.33 468.76 371.11 414.85 355.36 381.55 324.31 399.91 256.09 Z M115.546 291.55 C129.64 343.57 116.32 379.84 72.958 398.2 112.072 387.58 151.6 375.52 179.77 440.86 156.01 387.49 176.71 355 222.34 333.94 177.34 351.22 138.55 347.44 115.546 291.55 Z M267.97 346.45 C248.35 364.99 229.27 367.69 211.09 353.02 225.04 367.69 239.53 382.18 217.57 409.99 235.39 386.95 254.65 388.3 274.54 403.42 256.36 387.76 248.8 369.67 267.97 346.45 Z M424.48 389.2 C422.05 406.12 413.68 414.94 398.83 414.85 411.52 416.65 424.39 418.09 424.48 440.5 424.21 422.05 434.29 415.21 450.13 414.85 434.92 414.22 424.12 408.28 424.48 389.2 Z M271.75 421.6 C269.32 438.52 260.95 447.34 246.1 447.25 258.79 449.05 271.66 450.49 271.75 472.9 271.48 454.45 281.56 447.61 297.4 447.25 282.19 446.62 271.39 440.68 271.75 421.6 Z" fill="#ffffff" fill-opacity="1" stroke="none"/>
 </g>
</svg>
