<?xml version="1.0" encoding="UTF-8"?>
<svg width="512px" height="512px" viewBox="0 0 512 512" xmlns="http://www.w3.org/2000/svg" xmlns:xlink="http://www.w3.org/1999/xlink" version="1.1">
 <!-- Generated by Pixelmator Pro 2.0.1 -->
 <path id="Path" d="M512 256 L512 480 C512 497.673 497.673 512 480 512 L32 512 C14.327 512 0 497.673 0 480 L0 32 C0 14.327 14.327 0 32 0 L480 0 C497.673 0 512 14.327 512 32 Z" fill="#000000" fill-opacity="1" stroke="none"/>
 <g id="group">
  <path id="Path-1" d="M129.157 45.373 L129.157 53.782 C129.157 145.539 163.499 224.465 215.865 253.665 L215.865 259.15 C163.498 288.35 129.156 367.276 129.156 459.035 L129.156 467.444 387.229 467.444 387.229 459.035 C387.229 366.738 352.305 287.788 299.452 259.065 L299.452 253.75 C352.302 225.025 387.229 146.074 387.229 53.781 L387.229 45.373 129.154 45.373 Z M146.2 62.19 L370.188 62.19 C367.958 148.99 331.72 220.16 287.443 241.205 L282.635 243.484 282.635 269.36 287.444 271.637 C331.718 292.681 367.955 363.831 370.188 450.625 L146.2 450.625 C148.41 364.317 184.113 293.055 227.987 271.581 L232.712 269.275 232.712 243.54 227.987 241.235 C184.114 219.761 148.41 148.499 146.2 62.19 Z M338.49 139.702 C286.644 164.731 226.417 164.758 178.685 143.388 191.873 189.202 218.119 221.811 248.998 227.2 247.612 229.042 246.775 231.326 246.775 233.81 246.775 239.894 251.714 244.835 257.8 244.835 263.886 244.835 268.825 239.894 268.825 233.81 268.825 231.362 268.009 229.113 266.66 227.285 298.543 221.993 325.599 187.622 338.49 139.703 Z M257.8 258.363 C251.714 258.363 246.775 263.303 246.775 269.388 246.775 275.474 251.714 280.413 257.8 280.413 263.886 280.413 268.825 275.474 268.825 269.388 268.825 263.303 263.886 258.363 257.8 258.363 Z M257.8 293.715 C251.714 293.715 246.775 298.656 246.775 304.74 246.775 310.827 251.714 315.765 257.8 315.765 263.886 315.765 268.825 310.827 268.825 304.74 268.825 298.656 263.886 293.715 257.8 293.715 Z M257.8 329.295 C251.714 329.295 246.775 334.234 246.775 340.32 246.775 346.404 251.714 351.345 257.8 351.345 263.886 351.345 268.825 346.404 268.825 340.32 268.825 334.234 263.886 329.295 257.8 329.295 Z M257.913 365.21 C237.023 365.462 216.342 388.403 189.681 433.301 L327.381 433.301 C299.91 387.398 278.802 364.958 257.913 365.21 Z" fill="#ffffff" fill-opacity="1" stroke="none"/>
 </g>
</svg>
