<?xml version="1.0" encoding="UTF-8"?>
<svg width="512px" height="512px" viewBox="0 0 512 512" xmlns="http://www.w3.org/2000/svg" xmlns:xlink="http://www.w3.org/1999/xlink" version="1.1">
 <!-- Generated by Pixelmator Pro 1.8 -->
 <g id="group">
  <path id="Path" d="M255 118 C189.8 118 130.8 129.6 88.87 147.7 67.92 156.8 51.3 167.5 40.3 178.8 29.3 190.1 24 201.4 24 213 24 224.6 29.3 235.9 40.3 247.2 51.3 258.5 67.92 269.2 88.87 278.3 130.8 296.4 189.8 308 255 308 320.2 308 379.2 296.4 421.1 278.3 442.1 269.2 458.7 258.5 469.7 247.2 480.7 235.9 486 224.6 486 213 486 201.4 480.7 190.1 469.7 178.8 458.7 167.5 442.1 156.8 421.1 147.7 379.2 129.6 320.2 118 255 118 Z M24 256.1 L24 306.3 C24 312.6 29.3 323.9 40.3 335.2 51.3 346.5 67.92 357.2 88.87 366.3 130.8 384.4 189.8 396 255 396 320.2 396 379.2 384.4 421.1 366.3 442.1 357.2 458.7 346.5 469.7 335.2 480.7 323.9 486 312.6 486 306.3 L486 256.1 C484.9 257.4 483.8 258.6 482.6 259.8 469.3 273.4 450.8 285.1 428.3 294.8 383.3 314.3 322.3 326 255 326 187.7 326 126.7 314.3 81.72 294.8 59.23 285.1 40.71 273.4 27.42 259.8 26.23 258.6 25.1 257.3 24 256.1 Z" fill="#ffffff" fill-opacity="1" stroke="none"/>
 </g>
</svg>
