<?xml version="1.0" encoding="UTF-8"?>
<svg width="512px" height="512px" viewBox="0 0 512 512" xmlns="http://www.w3.org/2000/svg" xmlns:xlink="http://www.w3.org/1999/xlink" version="1.1">
 <!-- Generated by Pixelmator Pro 2.0.5 -->
 <path id="Path" d="M512 256 L512 480 C512 497.673 497.673 512 480 512 L32 512 C14.327 512 0 497.673 0 480 L0 32 C0 14.327 14.327 0 32 0 L480 0 C497.673 0 512 14.327 512 32 Z" fill="#000000" fill-opacity="1" stroke="none"/>
 <g id="group">
  <path id="Path-1" d="M283.927 43.6 C248.707 44.032 212.17 57.367 178.627 84.944 L251.05 84.944 251.05 123.813 C298.534 97.038 354.183 95.384 398.594 123.84 L382.225 132.588 440.444 178.236 437.069 103.254 413.303 115.967 C381.991 69.513 336.134 44.18 287.416 43.6 286.257 43.586 285.092 43.586 283.929 43.6 Z M42.727 101.763 L42.727 293.237 234.231 293.237 234.231 101.763 42.729 101.763 Z M87.981 125.19 L210.802 125.19 210.802 250.235 193.956 250.235 193.956 142.01 87.982 142.01 87.982 125.19 Z M90.99 159.503 L172.075 242.163 160.065 253.948 78.981 171.287 Z M276.981 215.078 L276.981 406.582 468.456 406.582 468.456 215.08 276.981 215.08 Z M322.206 238.535 L445.028 238.535 445.028 363.55 428.21 363.55 428.21 255.352 322.208 255.352 322.207 238.535 Z M325.215 272.82 L406.328 355.508 394.32 367.263 313.208 284.604 325.216 272.821 Z M74.538 330.111 L77.913 405.091 98.894 393.868 C153.729 473.642 251.885 489.705 332.557 423.401 L260.162 423.401 260.162 384.532 C213.29 410.974 158.462 412.921 114.335 385.601 L132.727 375.757 74.538 330.111 Z" fill="#ffffff" fill-opacity="1" stroke="none"/>
 </g>
</svg>
