<?xml version="1.0" encoding="UTF-8"?>
<svg width="512px" height="512px" viewBox="0 0 512 512" xmlns="http://www.w3.org/2000/svg" xmlns:xlink="http://www.w3.org/1999/xlink" version="1.1">
 <!-- Generated by Pixelmator Pro 1.8 -->
 <g id="group">
  <path id="Path" d="M265 34 L312.898 69.924 374.461 193.047 366.404 225.277 341.461 221.119 344.621 210.586 347.463 201.113 256 182.823 164.537 201.113 170.539 221.119 145.596 225.275 137.539 193.047 199.1 69.926 247 34 247 90 208 90 192 122 256 160 320 122 304 90 265 90 Z M453.313 203.258 L483.613 213.359 470.135 242.564 440.119 237.563 Z M58.687 203.258 L71.881 237.562 41.865 242.564 28.387 213.359 Z M256 205.32 L309.8 264.012 281.306 359 230.696 359 202.2 264.012 Z M281.254 206.229 L324.537 214.887 315.822 243.939 Z M230.746 206.231 L196.178 243.94 187.463 214.887 Z M336.246 238.498 L482.5 262.873 429.799 368.28 329.98 259.385 Z M175.754 238.498 L182.02 259.385 82.2 368.279 29.5 262.873 Z M323.959 279.458 L396.16 358.223 311.604 320.641 Z M188.041 279.458 L200.396 320.641 115.84 358.223 Z M306.389 338.022 L335.035 350.754 312.973 439 265 439 265 377 294.695 377 Z M205.611 338.022 L217.305 377 247 377 247 439 199.027 439 176.965 350.754 Z M387.6 374.115 L405.705 382.162 395.721 403.797 379.334 395.604 Z M124.4 374.115 L132.666 395.604 116.279 403.797 106.295 382.162 Z M311 457 L311 487 281 487 281 457 Z M231 457 L231 487 201 487 201 457 Z" fill="#ffffff" fill-opacity="1" stroke="none"/>
 </g>
</svg>
