<?xml version="1.0" encoding="UTF-8"?>
<svg width="512px" height="512px" viewBox="0 0 512 512" xmlns="http://www.w3.org/2000/svg" xmlns:xlink="http://www.w3.org/1999/xlink" version="1.1">
 <!-- Generated by Pixelmator Pro 1.8 -->
 <g id="group">
  <path id="Path" d="M375.483 251.243 L265.503 302.381 265.716 485.762 477.01 266.346 390.017 244.536 Z M362.747 359.869 L356.8 374.568 308.196 365.613 313.203 352.781 C317.939 349.28 322.451 345.487 326.713 341.423 332.649 335.99 338.186 330.136 343.279 323.906 347.862 318.197 352.073 312.198 355.885 305.948 359.578 300.249 362.762 294.236 365.399 287.978 L379.467 290.488 Q370.097 312.822 349.106 334.918 335.81 348.558 328.461 353.554 Z M121.603 244.334 L36.893 266.097 246.474 486 246.474 302.38 136.528 251.243 Z M140.75 295.186 C149.457 293.592 158.413 296.101 165.023 301.988 169.55 306.04 173.347 310.839 176.249 316.176 L163.168 318.852 C161.779 316.121 159.96 313.631 157.78 311.478 Q152.595 306.602 146.518 307.625 L146.031 307.72 C143.604 308.1 141.604 309.824 140.869 312.168 140.013 314.546 140.631 317.722 142.665 321.539 Q146.745 329.139 153.475 330.566 C156.318 331.017 159.219 330.948 162.038 330.363 L163.905 330.019 169.696 340.841 Q163.298 342.268 161.466 344.123 158.256 347.263 161.895 354.053 C163.284 356.793 165.388 359.107 167.984 360.749 170.167 362.166 172.802 362.713 175.369 362.283 L175.785 362.2 Q180.542 361.236 180.864 357.443 C181.125 354.873 180.209 351.699 178.116 347.929 L190.496 345.384 C192.314 348.946 193.692 352.715 194.599 356.61 195.136 359.744 194.915 362.961 193.957 365.993 193.193 368.144 191.817 370.025 189.997 371.404 187.596 373.068 184.854 374.173 181.97 374.639 L180.78 374.853 C174.81 375.871 168.671 374.923 163.286 372.153 157.203 369.071 152.256 364.136 149.158 358.061 Q145.531 351.271 146.554 345.871 C146.809 343.984 147.698 342.239 149.075 340.924 L149.004 340.924 Q147.16 341.234 141.964 338.427 C136.402 335.282 131.905 330.549 129.048 324.834 Q123.803 315.07 125.766 306.436 127.728 297.802 139.442 295.436 Z M27.19 248.865 L135.97 132.556 C136.444 132.508 136.923 132.508 137.397 132.556 L137.551 132.556 Q140.691 132.901 140.393 136.266 C139.927 139.182 138.8 141.953 137.099 144.366 134.516 148.397 131.219 151.923 127.371 154.771 Q123.459 157.709 112.327 164.285 99.531 171.79 92.777 179.055 C88.465 183.487 84.608 188.34 81.264 193.541 L114.171 197.299 122.353 184.336 101.386 181.958 C102.862 180.55 104.453 179.269 106.143 178.128 Q108.522 176.523 114.587 173.003 L121.009 169.256 C125.548 166.697 129.865 163.762 133.912 160.48 138.807 156.356 143.028 151.493 146.422 146.066 Q153.262 135.22 152.916 128.109 C152.726 124.16 150.811 121.675 147.232 120.604 L227.03 35.443 124.933 215.019 119.225 225.079 Z M394.428 176.891 Q390.611 171.433 390.67 168.376 C390.67 166.343 391.86 165.177 394.238 164.928 L394.808 164.928 C397.289 164.938 399.705 165.723 401.718 167.175 404.816 169.338 407.476 172.07 409.555 175.226 Q413.242 180.506 413.265 183.623 C413.265 185.716 412.077 186.881 409.769 187.19 L409.175 187.19 C406.661 187.162 404.223 186.328 402.218 184.812 399.151 182.694 396.509 180.02 394.428 176.927 Z M285.018 35.371 L368.966 125.005 367.777 125.005 C367.397 125.005 366.802 125.005 366.314 125.112 Q358.489 126.004 357.99 131.974 357.49 137.944 363.02 145.721 C364.917 148.367 367.051 150.835 369.395 153.095 372.379 155.93 375.806 158.259 379.539 159.992 Q377.422 162.882 378.837 167.972 C380.074 171.959 381.971 175.71 384.45 179.068 388.517 184.943 393.687 189.972 399.673 193.874 Q407.771 199.142 415.739 198.809 416.549 198.809 417.357 198.679 426.133 197.691 426.585 190.806 C426.678 189.174 426.522 187.538 426.122 185.953 L484.811 248.639 393.239 225.698 387.139 214.995 Z M383.238 140.298 L385.688 142.915 C386.139 143.485 386.591 144.104 387.043 144.699 388.851 147.291 389.766 149.456 389.766 151.228 389.766 152.999 388.732 154.01 386.639 154.248 L386.127 154.248 C383.946 154.255 381.82 153.572 380.05 152.298 377.61 150.673 375.51 148.588 373.866 146.161 371.892 143.331 370.929 141.059 370.988 139.347 371.048 137.634 372.106 136.647 374.175 136.41 L374.699 136.41 C376.848 136.392 378.948 137.049 380.704 138.289 381.604 138.886 382.451 139.559 383.237 140.299 Z M255.987 26 L137.456 231.026 255.988 286.076 374.592 231.026 Z M254.797 234.463 Q237.268 234.463 230.217 222.19 223.164 209.917 223.164 187.202 223.164 164.488 230.216 152.155 237.268 139.823 254.798 139.811 272.328 139.811 279.38 152.143 286.432 164.476 286.432 187.19 286.432 209.905 279.38 222.178 272.327 234.451 254.798 234.463 Z M265.335 162.656 Q267.832 170.624 267.832 187.202 267.832 203.019 265.335 211.403 262.837 219.787 254.798 219.728 246.758 219.728 244.166 211.403 241.573 203.079 241.573 187.203 241.573 170.624 244.166 162.656 246.759 154.688 254.798 154.688 262.813 154.676 265.311 162.644 Z" fill="#ffffff" fill-opacity="1" stroke="none"/>
 </g>
</svg>
