<?xml version="1.0" encoding="UTF-8"?>
<svg width="512px" height="512px" viewBox="0 0 512 512" xmlns="http://www.w3.org/2000/svg" xmlns:xlink="http://www.w3.org/1999/xlink" version="1.1">
 <!-- Generated by Pixelmator Pro 1.8 -->
 <g id="group">
  <path id="Path" d="M248 20.27 L72.33 132.598 248 128.775 Z M264 20.27 L264 128.775 439.67 132.598 Z M301.844 75.336 C306.491 75.224 311.616 77.098 315.42 79.16 321.502 82.7 323.625 86.408 330.494 83.38 341.192 84.224 352.791 89.174 358.062 99.06 362.777 103.634 359.617 111.67 352.895 111.71 343.175 111.77 333.155 105.635 338.332 103.396 342.982 101.386 352.966 104.282 348.346 97.836 344.714 93.401 337.261 90.056 331.994 91.939 330.404 98.749 322.612 95.935 320.039 91.296 317.682 85.481 310.885 83.116 304.954 83.38 298.894 86.083 306.624 92.164 310.298 93.316 318.202 95.44 310.515 100.77 306.236 98.386 301.956 96 291.243 88.741 292.713 80.046 294.901 76.71 298.227 75.423 301.843 75.336 Z M206.857 75.629 C212.391 76.151 219.24 78.689 217.059 85.604 212.777 92.534 207.281 98.661 198.997 100.386 192.483 103.754 184.112 104.783 177.351 102.269 173.747 100.023 163.924 92.944 162.541 98.915 161.875 105.115 165.569 114.267 156.435 114.731 L151.415 116.737 151.415 92.277 C161.257 88.401 172.452 87.761 181.681 93.612 189.654 97.772 201.061 95.115 205.933 87.829 207.263 81.335 197.771 83.259 193.693 84.493 191.006 76.233 201.563 77.023 206.856 75.628 Z M241.869 144.911 L55.389 148.971 126.619 341.901 Z M270.129 144.911 L385.379 341.901 456.609 148.971 Z M255.999 152.441 L138.923 352.551 373.075 352.551 Z M378.399 170.573 C382.294 170.619 386.313 171.728 389.341 173.533 403.169 181.77 410.796 199.678 411.397 216.489 411.481 222.187 409.779 229.735 405.431 233.505 402.581 235.489 399.406 236.703 396.187 237.937 379.363 236.757 372.255 218.7 366.46 205.312 363.055 195.425 360.683 181.262 368.2 173.992 370.733 171.542 374.505 170.527 378.4 170.572 Z M150.772 178.28 C157.297 178.54 163.682 183.233 165.616 189.6 167.699 193.574 165.054 201.045 160.759 201.69 155.859 202.424 157.002 192.373 151.415 190.125 145.535 186.435 139.92 194.465 137.249 198.832 136.919 199.792 136.554 200.75 136.353 201.746 146.75 197.689 156.665 208.839 156.657 218.699 156.345 230.369 148.814 243.476 136.952 246.833 L131.388 246.833 C118.688 246.127 113.092 230.98 117.225 220.203 121.645 204.418 127.997 186.299 144.359 179.603 146.407 178.601 148.599 178.193 150.772 178.28 Z M379.497 181.23 C372.431 181.082 375.117 191.188 376.159 195.686 377.709 205.786 382.617 215.452 389.309 222.979 391.009 224.393 392.972 225.109 395.073 225.706 401.938 224.452 399.543 212.873 398.793 209.171 394.086 198.264 391.736 185.887 379.497 181.229 Z M52 185.98 L52 359.246 113.86 353.543 Z M460 185.98 L398.14 353.543 460 359.246 Z M342.12 186.678 L370.598 250.17 360.584 254.617 340.557 211.252 C334.537 214.314 327.577 220.202 325.997 209.949 324.653 205.994 334.543 204.849 334.147 197.956 333.754 191.064 336.301 185.83 342.119 186.676 Z M136.273 210.978 C133.971 211.134 131.82 212.37 130.125 214.111 127.708 219.188 126.025 224.379 127.43 230.024 129.098 238.831 140.945 236.434 143.006 229.174 145.669 224.198 146.869 217.524 142.516 213.478 140.794 211.855 139.002 211.098 137.268 210.978 136.933 210.954 136.602 210.955 136.273 210.978 Z M453.753 244.628 C457.443 244.89 459.536 251.552 458.493 255.666 458.356 274.286 459.637 294.876 448.816 310.988 447.856 312.241 446.558 312.934 445.141 313.548 439.331 309.378 442.131 302.188 446.255 297.982 447.265 305.279 451.828 295.1 452.931 292.422 454.241 289.242 456.451 274.672 451.948 282.152 452.638 286.202 445.143 295.306 442.568 290.27 437.631 275.86 442.551 259.782 449.593 246.834 451.119 245.167 452.526 244.542 453.755 244.629 Z M59.93 245.473 C60.518 245.559 61.274 246.505 62.408 249.057 L62.408 310.213 C55.111 303.173 58.841 292.793 57.958 283.811 57.144 276.205 59.613 267.547 56.684 260.618 52.062 258.944 50.887 243.573 53.508 247.946 57.915 252.714 58.165 245.216 59.93 245.474 Z M225.943 249.813 C230.406 249.89 234.873 251.04 238.743 253.133 246.843 257.56 252.487 267.508 249.535 276.701 247.27 286.337 238.925 292.944 230.34 296.909 226.282 299.553 220.89 301.527 219.057 306.369 217.861 309.363 244.453 307.989 249.324 307.989 249.794 311.992 250.844 318.669 245.51 319.714 230.99 318.464 215.63 319.108 200.37 319.108 200.807 307.932 207.795 297.758 217.393 292.3 224.293 287.425 232.828 283.017 235.493 274.373 237.256 269.933 234.933 265.093 230.861 262.903 226.707 260.029 219.914 260.563 217.683 265.603 215.691 269.423 213.303 274.678 209.026 275.207 206.133 275.565 200.036 275.682 201.763 270.334 203.223 264.704 205.176 258.767 210.026 255.121 214.476 251.395 220.206 249.718 225.944 249.815 Z M284.508 250.33 C287.056 250.373 289.596 250.824 291.968 251.682 298.803 253.882 304.002 259.612 306.264 266.338 312.404 281.008 311.841 299.363 301.857 312.228 297.423 316.954 291.71 321.312 284.927 321.332 272.423 321.18 262.475 310.16 260.097 298.467 256.952 285.077 258.311 269.849 267.01 258.734 270.696 253.299 277.01 250.522 283.416 250.336 283.78 250.326 284.144 250.324 284.508 250.33 Z M450.896 256.098 C449.899 256.061 448.876 257.071 448.119 259.781 446.474 265.676 444.796 273.173 447.364 279.079 452.464 277.087 452.834 269.462 454.04 264.642 455.167 261.338 453.09 256.182 450.896 256.1 Z M285.062 261.691 C281.676 261.524 278.238 264.311 276.738 267.331 274.48 271.474 274.673 276.371 273.926 280.925 273.113 290.009 273.596 300.155 279.383 307.632 L281.59 309.104 C286.518 310.884 291.284 306.944 292.66 302.364 294.622 296.13 295 289.464 295.09 282.957 294.855 275.922 293.62 268.035 288.36 262.945 287.316 262.132 286.19 261.749 285.062 261.693 Z M434.016 266.849 L434.016 328.005 429.564 334.677 429.564 292.423 C424.954 299.876 420.536 301.467 423.498 291.511 429.552 284.361 428.308 274.101 434.016 266.849 Z M74.646 267.959 C74.666 268.029 74.689 268.099 74.709 268.167 79.222 267.67 81.985 275.444 83.813 279.032 84.613 282.605 88.933 296.802 85.845 293.83 85.572 293.377 85.315 292.916 85.05 292.46 L86.887 295.76 C82.289 292.103 80.512 285.273 82.443 287.736 80.885 284.722 79.483 281.641 78.225 278.496 78.165 279.676 77.498 280.611 75.76 281.289 74.473 284.779 74.495 288.369 75.09 291.934 75.29 290.264 76.265 289.55 78.475 291.18 86.317 303.804 90.651 320.287 85.773 334.678 L83.549 335.788 C73.192 329.958 72.145 316.352 70.122 305.785 68.567 293.495 69.334 281.075 72.422 269.075 73.229 268.528 73.989 268.247 74.706 268.168 74.686 268.098 74.664 268.031 74.646 267.961 Z M74.706 268.167 C74.82 268.584 74.943 268.993 75.074 269.392 74.954 268.984 74.824 268.579 74.709 268.168 Z M76.758 299.237 C72.698 303.863 74.498 312.027 76.381 317.637 77.489 323.144 83.297 327.777 82.437 319.157 82.387 313.527 82.607 307.432 79.437 302.767 78.477 302.23 77.53 300.869 76.759 299.237 Z M143.154 368.554 L256 491.73 368.846 368.553 Z M121.76 368.884 L67.963 373.844 132.186 414.909 C129.63 412.206 127.33 409.199 125.068 406.146 119.936 399.196 114.6 392.489 106.188 389.474 97.452 383.032 102.008 384.198 109.088 386.937 108.14 385.083 108.363 384.327 109.211 384.269 111.381 384.116 117.641 388.495 118.951 390.639 L143.657 422.245 208.807 463.901 Z M390.24 368.884 L347.768 415.244 C354.172 412.096 359.148 406.706 364.824 402.751 367.22 401.405 368.544 400.855 369.119 400.861 371.174 400.878 363.689 407.977 361.437 411.194 352.017 421.007 345.371 434.227 332.769 440.308 L351.683 415.848 C349.363 417.108 345.743 419.038 343.473 419.933 L303.193 463.901 377.661 416.286 C383.141 409.568 379.564 410.749 372.021 415.39 L360.583 421.404 C372.043 407.658 387.438 397.836 400.636 385.822 403.798 384.33 410.139 380.159 411.622 380.084 412.399 380.044 411.842 381.129 408.798 384.312 L396.185 400.277 C406.195 392.744 397.069 404.203 391.735 405.837 391.04 406.847 390.295 407.787 389.523 408.699 L444.035 373.843 Z M231.975 385.528 C233.333 385.538 234.685 385.653 235.973 385.823 L235.973 429.188 222.623 429.188 222.623 399.168 C217.583 397.79 212.206 400.89 207.283 398.898 203.525 395.958 208.293 392.052 211.807 393.008 215.085 392.882 219.363 393.205 221.131 389.774 223.766 386.434 227.901 385.5 231.976 385.528 Z M265.023 386.338 C265.487 386.318 265.986 386.375 266.52 386.524 269.667 387.334 272.986 386.769 276.215 386.937 L301.617 386.937 C303.12 389.929 302.369 394.687 298.312 394.792 294.419 395.302 290.502 394.41 286.622 395.004 281.924 395.15 276.869 393.231 272.424 395.408 269.302 397.068 268.259 403.913 273.412 401.484 276.778 400.374 280.324 399.677 283.82 400.594 290.804 401.697 298.786 403.484 302.945 409.784 305.021 412.94 305.617 417.121 303.578 420.454 299.976 426.982 292.044 428.861 285.283 430.204 282.946 430.647 280.623 431.608 278.253 431.414 271.008 430.821 262.65 430.331 257.65 424.27 254.988 421.776 254.947 417.173 259.553 417.61 263.123 417.468 268.21 417.21 269.875 421.115 273.122 424.775 278.712 424.055 283.002 423.095 286.59 422.612 290.532 420.547 290.586 416.422 291.176 412.212 287.508 409.242 283.742 408.622 277.924 406.257 272.172 410.027 266.372 410.449 262.909 411.495 256.794 410.929 257.436 405.984 258.196 401.796 260.099 397.876 260.146 393.524 260.236 390.519 261.78 386.494 265.023 386.34 Z M398.493 391.313 C398.283 391.065 391.503 397.057 388.573 399.393 L372.823 412.511 C381.413 408.148 389.295 402.901 395.098 395.063 397.651 392.463 398.574 391.411 398.492 391.313 Z M151.461 405.473 C153.851 405.453 159.004 410.123 160.911 412.533 L187.021 443.643 C179.299 441.461 173.731 436.453 169.368 429.866 162.938 422.55 158.086 413.26 148.155 410.326 139.212 405.324 142.975 403.906 150.288 408.062 150.015 406.204 150.528 405.48 151.462 405.472 Z" fill="#ffffff" fill-opacity="1" stroke="none"/>
 </g>
</svg>
