<?xml version="1.0" encoding="UTF-8"?>
<svg width="512px" height="512px" viewBox="0 0 512 512" xmlns="http://www.w3.org/2000/svg" xmlns:xlink="http://www.w3.org/1999/xlink" version="1.1">
 <!-- Generated by Pixelmator Pro 1.8 -->
 <g id="group">
  <path id="Path" d="M255.703 44.764 C249.527 44.764 243.35 46.148 238.566 48.916 L85.814 137.276 C76.244 142.811 76.244 151.566 85.814 157.102 L238.566 245.461 C248.136 250.997 263.269 250.997 272.838 245.461 L425.592 157.101 C435.162 151.567 435.162 142.812 425.592 137.277 L272.838 48.916 C268.053 46.146 261.878 44.764 255.703 44.764 Z M238.695 87.27 L261.533 101.543 C254.786 102.55 248.947 103.823 244.018 105.361 239.033 106.865 234.746 108.695 231.154 110.85 223.433 115.483 220.064 120.747 221.049 126.643 221.979 132.503 227.272 138.89 236.924 145.803 237.184 142.336 238.381 139.151 240.514 136.25 242.591 133.314 245.673 130.621 249.758 128.17 260.038 122.002 272.017 119.34 285.693 120.19 299.415 121.011 312.261 125.163 324.23 132.645 337.469 140.919 344.564 149.669 345.514 158.896 346.408 168.09 340.93 176.242 329.078 183.354 316.014 191.192 300.485 193.887 282.49 191.439 264.486 188.931 245.526 181.453 225.613 169.008 205.203 156.252 193.355 143.732 190.066 131.448 186.767 119.101 192.414 108.553 207.004 99.798 211.628 97.024 216.558 94.606 221.794 92.545 227.032 90.484 232.665 88.725 238.695 87.27 Z M277.373 140.5 C273.204 140.493 269.401 141.52 265.967 143.58 261.433 146.3 259.842 149.486 261.193 153.135 262.534 156.722 266.817 160.775 274.043 165.291 281.269 169.807 287.823 172.528 293.709 173.457 299.584 174.324 304.79 173.398 309.324 170.677 313.904 167.93 315.522 164.762 314.182 161.174 312.831 157.524 308.542 153.442 301.316 148.926 294.09 144.41 287.539 141.719 281.664 140.852 280.245 140.624 278.81 140.506 277.373 140.5 Z M435.867 173.814 C433.929 173.888 431.649 174.672 428.912 176.227 L281.977 261.074 C272.407 266.601 264.837 279.712 264.837 290.764 L264.837 448.463 C264.837 459.513 272.407 463.882 281.977 458.353 L428.914 373.51 C438.484 367.983 446.051 354.874 446.051 343.822 L446.051 186.122 C443.554 178.074 440.821 173.627 435.867 173.814 Z M76.104 174.294 C69.877 174.294 66.071 179.619 65.949 186.119 L65.949 343.816 C65.949 354.868 73.519 367.979 83.089 373.506 L230.019 458.354 C239.589 463.88 247.16 459.51 247.16 448.459 L247.16 290.759 C247.16 279.708 239.59 266.6 230.02 261.072 L83.09 176.225 C80.523 174.887 78.179 174.295 76.104 174.295 Z M116.199 226.52 L184.313 267.389 184.313 292.676 138.051 264.918 138.051 285.558 C140.19 286.114 142.284 286.833 144.313 287.709 146.448 288.573 148.654 289.689 150.932 291.055 163.885 298.827 173.969 308.957 181.182 321.445 188.394 333.875 192 347.357 192 361.893 192 376.309 188.062 385.235 180.186 388.67 172.356 392.134 161.466 389.68 147.516 381.31 141.49 377.695 135.511 373.362 129.58 368.314 123.696 363.354 117.836 357.634 112 351.154 L112 324.078 C117.789 331.721 123.27 338.138 128.441 343.326 133.661 348.543 138.571 352.531 143.174 355.293 149.817 359.279 155.036 360.385 158.832 358.611 162.675 356.807 164.598 352.421 164.598 345.451 164.598 338.421 162.675 331.728 158.832 325.371 155.036 319.043 149.817 313.886 143.174 309.901 139.218 307.53 134.988 305.651 130.576 304.307 126.116 302.881 121.324 301.972 116.199 301.578 Z M386.246 232.252 L386.246 318.061 400 309.809 400 335.223 386.246 343.475 386.246 368.252 362.744 382.354 362.744 357.576 320 383.223 320 353.163 358.611 248.832 Z M362.744 275.23 L335.496 348.51 362.744 332.162 Z" fill="#ffffff" fill-opacity="1" stroke="none"/>
 </g>
</svg>
