<?xml version="1.0" encoding="UTF-8"?>
<svg width="512px" height="512px" viewBox="0 0 512 512" xmlns="http://www.w3.org/2000/svg" xmlns:xlink="http://www.w3.org/1999/xlink" version="1.1">
 <!-- Generated by Pixelmator Pro 2.0.8 -->
 <g id="group">
  <g id="group-1">
   <path id="Path" d="M256 21.95 L250.6 25.98 C187.5 73.41 125.4 104.5 30.58 120.3 L23.08 121.5 23.08 129.1 C23.08 148.1 31.48 177.8 45.18 214.2 58.78 250.7 77.98 293 100.2 333.4 122.5 373.8 147.6 412.3 174 441.1 200.1 470 227.5 490 256 490 284.5 490 311.9 470 338.2 441.1 364.4 412.3 389.5 373.8 411.9 333.4 434.1 293 453.2 250.7 466.9 214.2 480.5 177.8 488.9 148.1 488.9 129.1 L488.9 121.5 481.5 120.3 C386.9 104.5 324.6 73.41 261.4 25.98 Z" fill="#ffffff" fill-opacity="1" stroke="none"/>
   <path id="Path-1" d="M256 44.15 C317.1 89.19 380.4 120.3 470.4 136.5 468.5 151.7 461.4 177.9 450.1 208 446 218.8 441.5 230.2 436.4 242 L288 242 288 193.1 352 209.1 256 97.14 160 209.1 224 193.1 224 242 75.57 242 C70.57 230.2 65.98 218.8 61.88 208 50.68 177.9 43.48 151.7 41.58 136.5 131.6 120.3 194.8 89.19 256 44.15 Z" fill="#ffffff" fill-opacity="1" stroke="none"/>
  </g>
 </g>
 <g id="strong-3">
  <path id="Path-2" d="M255.823 110 C248.761 110 242.103 114.044 236.909 121.447 231.716 128.848 228.308 139.481 228.308 151.313 228.308 163.144 231.716 173.761 236.91 181.163 242.103 188.566 248.762 192.61 255.823 192.61 262.885 192.61 269.526 188.566 274.72 181.163 279.914 173.762 283.338 163.145 283.338 151.313 283.338 139.482 279.914 128.849 274.72 121.447 269.527 114.045 262.886 110 255.824 110 Z M176.749 132.663 C166.063 132.965 164.12 139.974 160.023 147.941 147.762 171.784 130.781 234.646 130.781 234.646 L215.234 231.785 230.562 304.198 218.573 360 297.038 360 285.312 304.214 298.074 231.85 380.979 234.646 C380.98 234.646 363.999 171.783 351.739 147.941 347.641 139.973 345.699 132.964 335.013 132.663 325.593 132.663 317.958 140.848 317.958 150.934 317.958 161.021 325.593 169.207 335.013 169.207 336.975 169.207 338.832 168.742 340.588 168.088 L344.765 207.247 283.222 186.146 C283.072 186.367 282.932 186.603 282.779 186.82 276.234 196.148 266.672 202.445 255.822 202.445 244.973 202.445 235.412 196.148 228.867 186.82 228.721 186.612 228.583 186.391 228.44 186.179 L166.996 207.247 171.173 168.089 C172.929 168.742 174.787 169.207 176.749 169.207 186.169 169.207 193.804 161.022 193.804 150.934 193.804 140.848 186.169 132.663 176.75 132.663 Z" fill="#d0021b" fill-opacity="1" stroke="none"/>
 </g>
</svg>
