<?xml version="1.0" encoding="UTF-8"?>
<svg width="512px" height="512px" viewBox="0 0 512 512" xmlns="http://www.w3.org/2000/svg" xmlns:xlink="http://www.w3.org/1999/xlink" version="1.1">
 <!-- Generated by Pixelmator Pro 2.0.8 -->
 <g id="group">
  <g id="group-1">
   <path id="Path" d="M256 21.95 L250.6 25.98 C187.5 73.41 125.4 104.5 30.58 120.3 L23.08 121.5 23.08 129.1 C23.08 148.1 31.48 177.8 45.18 214.2 58.78 250.7 77.98 293 100.2 333.4 122.5 373.8 147.6 412.3 174 441.1 200.1 470 227.5 490 256 490 284.5 490 311.9 470 338.2 441.1 364.4 412.3 389.5 373.8 411.9 333.4 434.1 293 453.2 250.7 466.9 214.2 480.5 177.8 488.9 148.1 488.9 129.1 L488.9 121.5 481.5 120.3 C386.9 104.5 324.6 73.41 261.4 25.98 Z" fill="#ffffff" fill-opacity="1" stroke="none"/>
   <path id="Path-1" d="M256 44.15 C317.1 89.19 380.4 120.3 470.4 136.5 468.5 151.7 461.4 177.9 450.1 208 446 218.8 441.5 230.2 436.4 242 L288 242 288 193.1 352 209.1 256 97.14 160 209.1 224 193.1 224 242 75.57 242 C70.57 230.2 65.98 218.8 61.88 208 50.68 177.9 43.48 151.7 41.58 136.5 131.6 120.3 194.8 89.19 256 44.15 Z" fill="#ffffff" fill-opacity="1" stroke="none"/>
  </g>
 </g>
 <g id="smart">
  <path id="Path-2" d="M255.987 109.95 C234.456 109.95 217.073 127.123 217.073 148.428 217.073 160.496 221.275 166.168 225.896 173.52 228.994 178.404 232.198 184.076 234.036 192.216 L277.624 192.216 C279.462 183.866 282.665 178.141 285.764 173.205 290.437 165.8 294.586 160.234 294.586 148.428 294.586 127.123 277.361 109.95 255.987 109.95 Z M181.363 113.994 L163.928 118.064 206.57 139.201 Z M330.297 113.994 L305.089 139.201 347.732 118.064 Z M231.935 141.065 L255.83 152.986 279.724 141.065 268.801 184.653 259.663 182.343 265.545 158.711 255.83 163.595 246.114 158.711 251.996 182.343 242.858 184.653 Z M155 149.904 L155 166.746 205.415 158.291 Z M356.659 149.904 L306.245 158.291 356.659 166.693 Z M296.897 175.253 L317.851 208.495 330.507 200.46 Z M214.763 175.306 L181.153 200.513 193.809 208.548 Z M234.824 199.778 L234.824 208.18 276.836 208.18 276.836 199.778 Z M252.889 214.64 C245.694 214.64 238.762 214.902 234.141 215.165 198.325 220.784 190.605 270.516 199.113 315.784 L211.507 315.784 210.982 260.433 220.749 260.328 C220.014 293.78 221.59 326.813 223.638 359.95 L250.631 359.95 250.631 304.441 260.451 304.441 260.451 359.95 286.919 359.95 C289.282 325.815 290.017 290.892 290.332 260.328 L300.153 260.433 299.575 315.784 312.494 315.784 C322.104 269.308 309.973 221.834 277.256 215.69 272.32 214.955 264.18 214.64 255.935 214.64 Z" fill="#4a90e2" fill-opacity="1" stroke="none"/>
 </g>
</svg>
