<?xml version="1.0" encoding="UTF-8"?>
<svg width="512px" height="512px" viewBox="0 0 512 512" xmlns="http://www.w3.org/2000/svg" xmlns:xlink="http://www.w3.org/1999/xlink" version="1.1">
 <!-- Generated by Pixelmator Pro 2.0.8 -->
 <g id="group">
  <g id="group-1">
   <path id="Path" d="M256 21.95 L250.6 25.98 C187.5 73.41 125.4 104.5 30.58 120.3 L23.08 121.5 23.08 129.1 C23.08 148.1 31.48 177.8 45.18 214.2 58.78 250.7 77.98 293 100.2 333.4 122.5 373.8 147.6 412.3 174 441.1 200.1 470 227.5 490 256 490 284.5 490 311.9 470 338.2 441.1 364.4 412.3 389.5 373.8 411.9 333.4 434.1 293 453.2 250.7 466.9 214.2 480.5 177.8 488.9 148.1 488.9 129.1 L488.9 121.5 481.5 120.3 C386.9 104.5 324.6 73.41 261.4 25.98 Z" fill="#ffffff" fill-opacity="1" stroke="none"/>
   <path id="Path-1" d="M256 44.15 C317.1 89.19 380.4 120.3 470.4 136.5 468.5 151.7 461.4 177.9 450.1 208 446 218.8 441.5 230.2 436.4 242 L288 242 288 193.1 352 209.1 256 97.14 160 209.1 224 193.1 224 242 75.57 242 C70.57 230.2 65.98 218.8 61.88 208 50.68 177.9 43.48 151.7 41.58 136.5 131.6 120.3 194.8 89.19 256 44.15 Z" fill="#ffffff" fill-opacity="1" stroke="none"/>
  </g>
 </g>
 <g id="sprint">
  <path id="Path-2" d="M209.546 110.001 L256.863 147.751 297.775 150.006 297.232 159.835 212.214 155.143 149.636 152.559 269.375 188.4 165.21 318.396 157.555 309.095 131.624 360 262.642 253.169 289.938 259.276 269.507 280.662 262.74 274.982 232.563 319.302 354.59 245.463 293.033 228.388 345.832 185.337 C346.429 185.579 347.044 185.81 347.676 185.979 359.964 189.271 373.894 177.11 378.791 158.83 383.69 140.552 377.695 123.072 365.407 119.779 353.119 116.486 339.189 128.631 334.291 146.911 333.518 149.796 333.025 152.663 332.776 155.456 L209.546 110 Z" fill="#417505" fill-opacity="1" stroke="none"/>
 </g>
</svg>
