<svg width="512" height="512" viewBox="0 0 512 512" xmlns="http://www.w3.org/2000/svg" xmlns:xlink="http://www.w3.org/1999/xlink">
    <g id="anticlockwise-rotation">
        <path id="Path" fill="#ffffff" stroke="none" d="M 68.218666 34.999969 C 71.204094 34.998474 74.217415 35.255768 77.227974 35.786407 C 98.636803 39.561554 115.438332 56.363068 119.213463 77.771912 C 122.988091 99.180969 112.946114 120.715942 94.119453 131.585541 C 85.882767 136.341095 76.718925 138.61972 67.621178 138.508423 C 55.923923 138.365204 44.335964 134.270966 34.968613 126.4104 L 42.721138 117.172211 C 55.522667 127.913452 73.617668 129.496338 88.089546 121.141327 C 102.561172 112.786041 110.238327 96.322937 107.336563 79.866364 C 104.434547 63.409821 91.589806 50.564819 75.132996 47.6633 C 62.154083 45.374878 49.172405 49.668335 40.165607 58.683929 L 52.160851 70.678436 L 20 70.678436 L 20 38.517578 L 31.643232 50.161316 C 41.296009 40.518066 54.464874 35.007507 68.218666 34.999969 Z"/>
    </g>
    <path id="Arrow" fill="#ffffff" fill-rule="evenodd" stroke="none" visibility="hidden" d="M 439.66333 35.963776 L 389.869049 105.04361 L 420.272369 105.374054 L 419.687256 159.20462 L 456.955872 159.609711 L 457.540985 105.779144 L 487.944305 106.109619 Z"/>
    <g id="Group">
        <path id="path1" fill="#ffffff" stroke="none" d="M 254.970001 34.75 C 224.490005 34.583008 195.949997 56.869995 175.438004 96.906006 C 175.363007 97.052002 175.261993 97.166016 175.188004 97.312012 L 43.063 326.78299 L 42.842999 327.126007 C 18.5 365.412994 13.377 401.515015 28.469999 428.029999 C 43.549999 454.528015 77.097 468.156006 121.970001 465.937988 L 387.062988 465.937988 C 431.950012 468.165009 465.507996 454.533997 480.592987 428.031006 C 495.683014 401.520996 490.549011 365.436005 466.217987 327.157013 L 465.997986 326.782013 L 335.279999 98.063995 C 335.220001 97.944 335.156006 97.838989 335.093994 97.720001 C 314.145996 57.457001 285.467987 34.916992 254.968994 34.75 Z M 255.029999 53.593994 C 268.605988 53.723999 281.483002 60.523987 293.156006 71.937012 C 304.761993 83.283997 315.709991 99.390015 326.562012 120.281006 C 326.625 120.403015 326.687012 120.505005 326.75 120.626007 L 441.970001 322.188995 C 442.002991 322.242004 442.028015 322.290985 442.062012 322.345001 L 442.187012 322.565002 C 455.106995 342.838989 463.582001 360.625 467.468994 376.532013 C 471.378998 392.541992 470.532013 407.179993 463.623993 418.940002 C 456.716003 430.700012 444.402008 438.472992 428.843994 442.846008 C 413.399994 447.186005 394.335999 448.502014 371.436005 447.346008 L 137.625 447.346008 C 112.779999 448.604004 92.894997 447.026001 77.220001 442.221008 C 61.439999 437.381012 49.540001 428.770996 43.5 416.531006 C 37.459999 404.294006 37.638 389.734009 42 374.095001 C 46.333 358.559998 54.814999 341.487 66.875 322.565002 L 67.095001 322.187988 L 183.561996 120 C 183.641998 119.843018 183.731995 119.720001 183.811996 119.562012 C 194.509995 98.643982 205.320007 82.600006 216.875 71.376007 C 228.516998 60.069 241.455002 53.463013 255.031006 53.596008 Z M 302.687012 115.687012 L 274.157013 339.718994 L 232.313004 339.718994 L 204.438004 120.5 C 203.033997 123.056 201.628006 125.705017 200.218002 128.470001 L 200.125 128.687988 L 200 128.906006 L 83.061996 331.876007 L 82.969002 332.062988 L 82.843002 332.25 C 71.279999 350.346008 63.598 366.226013 60 379.125 C 56.402 392.024994 56.891998 401.446991 60.25 408.25 C 63.608002 415.053009 70.175003 420.529999 82.720001 424.375 C 95.262001 428.220001 113.389999 429.921997 137.125 428.687988 L 137.375 428.656006 L 371.687988 428.656006 L 371.937988 428.686005 C 393.787994 429.824005 411.246002 428.406006 423.812988 424.876007 C 436.378998 421.342987 443.63501 416.049011 447.5 409.468994 C 451.36499 402.889008 452.477997 393.924011 449.312988 380.968994 C 446.147003 368.010986 438.580994 351.595001 426.218994 332.248993 L 426.092987 332.061005 L 425.967987 331.842987 L 310.309998 129.562988 L 310.21701 129.404999 L 310.153015 129.218018 C 307.653015 124.390015 305.162994 119.891998 302.683014 115.686005 Z M 231.279999 361.875 L 275.187012 361.875 L 275.187012 405.781006 L 231.279999 405.781006 L 231.279999 361.876007 Z"/>
    </g>
</svg>
