<?xml version="1.0" encoding="UTF-8"?>
<svg width="512px" height="512px" viewBox="0 0 512 512" xmlns="http://www.w3.org/2000/svg" xmlns:xlink="http://www.w3.org/1999/xlink" version="1.1">
 <!-- Generated by Pixelmator Pro 1.8 -->
 <g id="group">
  <path id="Path" d="M223 28.027 L237.037 138.567 251.844 35.535 Z M335.71 49.154 L274.13 141.524 362.53 71.006 Z M124.15 70.012 L124.15 99.81 201.625 141.525 Z M318 144.088 C363.826 256.36 347.206 385 318 494 L492 494 492 144.088 Z M239.402 155.551 C238.835 155.545 238.262 155.551 237.684 155.571 225.167 155.984 211.214 162.345 199.791 172.845 184.017 187.372 175.948 207.095 179.624 222.145 134.624 234.495 103.03 284.828 97.984 324.325 94.016 361.491 113.306 385.74 98.542 409.757 L39.77 448.54 19.312 458.537 54.33 497.19 70.016 497.19 52.746 465.02 125.652 426.447 C140.35 417.847 141.717 402.707 144.932 385.355 161.079 397.231 178.509 408.557 192.492 417.835 186.132 445.52 153.948 470.689 133.98 497.191 L211.807 497.191 208.902 491.981 C208.902 491.981 169.872 485.168 165.132 484.483 164.982 484.493 164.842 484.488 164.725 484.463 164.398 484.387 164.643 484.413 165.133 484.483 173.276 484.006 230.259 432.537 228.663 419.943 215.165 396.828 194.633 375.108 173.689 353.667 175.534 328.192 175.989 300.933 214.439 278.071 L324.483 273.505 C323.543 251.13 319.953 213.689 314.133 207.487 304.431 215.027 303.261 238.33 302.505 256.124 L223.042 253.841 C214.597 253.211 208.099 245.995 201.892 241.019 215.492 242.575 231.912 236.109 245.11 223.995 265.783 204.993 272.396 178.138 259.88 164.013 255.085 158.601 247.91 155.648 239.402 155.553 Z" fill="#ffffff" fill-opacity="1" stroke="none"/>
 </g>
</svg>
