<?xml version="1.0" encoding="UTF-8"?>
<svg width="512px" height="512px" viewBox="0 0 512 512" xmlns="http://www.w3.org/2000/svg" xmlns:xlink="http://www.w3.org/1999/xlink" version="1.1">
 <!-- Generated by Pixelmator Pro 2.0.8 -->
 <g id="group">
  <path id="Path" d="M18.355 18.375 L18.355 53.21 89.04 99.51 46.447 157.22 127.477 129.828 134.5 160.326 190.566 165.582 200.492 208.802 164.869 225.736 124.571 195.951 54.489 258.441 126.907 234.496 149.685 278.883 194.645 264.51 226.845 208.592 C216.607 184.792 217.169 156.672 231.028 132.596 238.236 120.066 248.113 110.092 259.672 103.021 262.002 102.346 268.382 97.504 271.32 97.219 282.835 92.439 295.302 90.132 307.857 90.685 313.495 90.933 319.145 91.738 324.72 93.118 L336.808 96.108 296.468 165.608 C293.012 171.61 295.193 179.698 300.363 182.693 L300.365 182.695 C305.509 185.671 312.732 183.47 316.379 177.135 L316.389 177.121 356.739 107.603 365.331 116.573 C390.788 143.143 397.326 184.313 378.028 217.833 364.092 242.038 339.948 256.145 314.352 259.073 L284.442 311.01 311.459 334.365 291.539 378.228 377.452 445.912 333.827 371.66 371.612 338.45 419.502 364.734 367.804 297.954 348.427 330.324 324.307 286.474 386.797 253.768 404.317 293.482 434.687 267.202 467.392 318.012 443.448 229.242 413.66 253.768 408.988 187.191 484.326 138.719 402.539 134.129 431.155 78.309 467.31 104.894 493.645 88.554 493.645 18.374 491.015 18.374 456.878 50.53 415.41 27.757 370.31 89.384 335.74 73.222 352.396 20.734 274.092 74.328 249.894 18.378 184.111 18.378 178.885 19.008 230.861 52.298 218.014 113.618 167.204 122.378 94.877 18.378 18.354 18.378 Z M304.56 109.3 C292.16 109.218 279.928 112.562 269.422 118.98 L269.32 119.04 C260.414 124.513 252.886 132.083 247.227 141.918 L247.227 141.92 C235.631 162.063 235.835 185.666 245.609 205 L247.886 209.504 161.194 360.057 156.126 360.327 C136.142 361.387 116.826 371.667 104.876 389.247 97.499 399.94 93.163 412.879 93.163 426.799 93.163 463.345 122.991 493.173 159.538 493.173 196.084 493.173 225.912 463.345 225.912 426.798 225.912 421.741 225.322 416.821 224.242 412.084 224.142 411.627 224.035 411.174 223.926 410.719 223.876 410.519 223.831 410.319 223.779 410.119 222.581 405.347 220.862 400.725 218.636 396.356 L216.336 391.843 303.034 241.273 308.104 241.003 C329.789 239.85 350.204 228.709 361.834 208.511 L361.831 208.511 C374.641 186.261 372.731 159.897 359.716 139.701 L332.576 186.461 C324.266 200.895 305.738 207.399 291.001 198.868 L291 198.868 C276.287 190.346 271.77 171.056 280.27 156.285 L280.28 156.269 307.486 109.401 C307.336 109.394 307.188 109.366 307.039 109.361 306.211 109.324 305.384 109.303 304.559 109.298 Z M159.54 379.1 C185.99 379.1 207.236 400.344 207.236 426.797 207.236 453.247 185.992 474.493 159.539 474.493 133.085 474.493 111.843 453.248 111.843 426.796 111.843 400.342 133.086 379.098 159.538 379.098 Z" fill="#ffffff" fill-opacity="1" stroke="none"/>
 </g>
</svg>
