<?xml version="1.0" encoding="UTF-8"?>
<svg width="512px" height="512px" viewBox="0 0 512 512" xmlns="http://www.w3.org/2000/svg" xmlns:xlink="http://www.w3.org/1999/xlink" version="1.1">
 <!-- Generated by Pixelmator Pro 2.0.8 -->
 <g id="group">
  <path id="Path" d="M20.22 21.75 L20.22 87.25 112.22 157.875 52.094 215.969 287.75 373.469 203.906 367.624 297.156 444.154 219.594 449.624 333.094 490.28 328.469 421.25 306.686 421.25 C306.686 383.46 305.939 329.287 339.186 321.25 334.089 313.602 330.999 303.6 330.999 292.625 330.999 268.632 345.783 249.155 363.999 249.155 382.215 249.155 396.969 268.63 396.969 292.625 396.969 303.872 393.729 314.097 388.405 321.813 418.919 330.451 421.28 383.603 421.28 421.25 L398.313 421.25 393.063 491.063 484.969 431.469 435.905 435.843 493.499 330.313 433.343 347.218 490.843 254.404 422.313 283.217 476.53 180.872 403.875 223.935 422.405 100.528 370.688 216.468 299.563 72.436 322.563 237.498 256.313 184.998 298.781 270.748 178.345 193.778 251.939 139.123 123.188 21.75 20.218 21.75 Z" fill="#ffffff" fill-opacity="1" stroke="none"/>
 </g>
</svg>
