<?xml version="1.0" encoding="UTF-8"?>
<svg width="512px" height="512px" viewBox="0 0 512 512" xmlns="http://www.w3.org/2000/svg" xmlns:xlink="http://www.w3.org/1999/xlink" version="1.1">
 <!-- Generated by Pixelmator Pro 2.0.8 -->
 <g id="group">
  <path id="Path" d="M254.97 34.75 C224.49 34.583 195.95 56.87 175.438 96.906 175.363 97.052 175.262 97.166 175.188 97.312 L43.063 326.783 42.843 327.126 C18.5 365.413 13.377 401.515 28.47 428.03 43.55 454.528 77.097 468.156 121.97 465.938 L387.063 465.938 C431.95 468.165 465.508 454.534 480.593 428.031 495.683 401.521 490.549 365.436 466.218 327.157 L465.998 326.782 335.28 98.064 C335.22 97.944 335.156 97.839 335.094 97.72 314.146 57.457 285.468 34.917 254.969 34.75 Z M255.03 53.594 C268.606 53.724 281.483 60.524 293.156 71.937 304.762 83.284 315.71 99.39 326.562 120.281 326.625 120.403 326.687 120.505 326.75 120.626 L441.97 322.189 C442.003 322.242 442.028 322.291 442.062 322.345 L442.187 322.565 C455.107 342.839 463.582 360.625 467.469 376.532 471.379 392.542 470.532 407.18 463.624 418.94 456.716 430.7 444.402 438.473 428.844 442.846 413.4 447.186 394.336 448.502 371.436 447.346 L137.625 447.346 C112.78 448.604 92.895 447.026 77.22 442.221 61.44 437.381 49.54 428.771 43.5 416.531 37.46 404.294 37.638 389.734 42 374.095 46.333 358.56 54.815 341.487 66.875 322.565 L67.095 322.188 183.562 120 C183.642 119.843 183.732 119.72 183.812 119.562 194.51 98.644 205.32 82.6 216.875 71.376 228.517 60.069 241.455 53.463 255.031 53.596 Z M302.687 115.687 L274.157 339.719 232.313 339.719 204.438 120.5 C203.034 123.056 201.628 125.705 200.218 128.47 L200.125 128.688 200 128.906 83.062 331.876 82.969 332.063 82.843 332.25 C71.28 350.346 63.598 366.226 60 379.125 56.402 392.025 56.892 401.447 60.25 408.25 63.608 415.053 70.175 420.53 82.72 424.375 95.262 428.22 113.39 429.922 137.125 428.688 L137.375 428.656 371.688 428.656 371.938 428.686 C393.788 429.824 411.246 428.406 423.813 424.876 436.379 421.343 443.635 416.049 447.5 409.469 451.365 402.889 452.478 393.924 449.313 380.969 446.147 368.011 438.581 351.595 426.219 332.249 L426.093 332.061 425.968 331.843 310.31 129.563 310.217 129.405 310.153 129.218 C307.653 124.39 305.163 119.892 302.683 115.686 Z M231.28 361.875 L275.187 361.875 275.187 405.781 231.28 405.781 231.28 361.876 Z" fill="#ffffff" fill-opacity="1" stroke="none"/>
 </g>
</svg>
