<?xml version="1.0" encoding="UTF-8"?>
<svg width="512px" height="512px" viewBox="0 0 512 512" xmlns="http://www.w3.org/2000/svg" xmlns:xlink="http://www.w3.org/1999/xlink" version="1.1">
 <!-- Generated by Pixelmator Pro 2.0.8 -->
 <g id="group">
  <path id="Path" d="M196 496 C179.38 496 166 482.62 166 466 L166 346 46 346 C29.38 346 16 332.62 16 316 L16 196 C16 179.38 29.38 166 46 166 L166 166 166 46 C166 29.38 179.38 16 196 16 L316 16 C332.62 16 346 29.38 346 46 L346 166 466 166 C482.62 166 496 179.38 496 196 L496 316 C496 332.62 482.62 346 466 346 L346 346 346 466 C346 482.62 332.62 496 316 496 Z M196 361 L316 361 256 301 Z M196 286 L316 286 256 226 Z M196 211 L316 211 256 151 Z" fill="#ffffff" fill-opacity="1" stroke="none"/>
 </g>
</svg>
