<?xml version="1.0" encoding="UTF-8"?>
<svg width="512px" height="512px" viewBox="0 0 512 512" xmlns="http://www.w3.org/2000/svg" xmlns:xlink="http://www.w3.org/1999/xlink" version="1.1">
 <!-- Generated by Pixelmator Pro 2.0.8 -->
 <g id="group">
  <path id="Path" d="M196 16 C179.38 16 166 29.38 166 46 L166 166 46 166 C29.38 166 16 179.38 16 196 L16 316 C16 332.62 29.38 346 46 346 L166 346 166 466 C166 482.62 179.38 496 196 496 L316 496 C332.62 496 346 482.62 346 466 L346 346 466 346 C482.62 346 496 332.62 496 316 L496 196 C496 179.38 482.62 166 466 166 L346 166 346 46 C346 29.38 332.62 16 316 16 Z M196 151 L316 151 256 211 Z M196 226 L316 226 256 286 Z M196 301 L316 301 256 361 Z" fill="#ffffff" fill-opacity="1" stroke="none"/>
 </g>
</svg>
