<?xml version="1.0" encoding="UTF-8"?>
<svg width="512px" height="512px" viewBox="0 0 512 512" xmlns="http://www.w3.org/2000/svg" xmlns:xlink="http://www.w3.org/1999/xlink" version="1.1">
 <!-- Generated by Pixelmator Pro 2.0.8 -->
 <g id="group">
  <path id="Path" d="M97.812 23.375 L97.812 116.25 144.032 167.97 144.032 351 118.187 351 94.594 491.906 414.53 491.906 390.938 351 365.063 351 365.063 167.97 411.283 116.25 411.283 23.375 357.345 23.375 357.345 67.345 324.5 67.345 324.5 23.375 270.562 23.375 270.562 67.345 238.125 67.345 238.125 23.375 184.187 23.375 184.187 67.345 151.75 67.345 151.75 23.375 Z M171.562 176.25 L190.25 176.25 190.25 226.47 171.562 226.47 Z M245.156 176.25 L263.844 176.25 263.844 226.47 245.156 226.47 Z M319.312 176.25 L338 176.25 338 226.47 319.312 226.47 Z" fill="#ffffff" fill-opacity="1" stroke="none"/>
 </g>
</svg>
