<?xml version="1.0" encoding="UTF-8"?>
<svg width="512px" height="512px" viewBox="0 0 512 512" xmlns="http://www.w3.org/2000/svg" xmlns:xlink="http://www.w3.org/1999/xlink" version="1.1">
 <!-- Generated by Pixelmator Pro 2.0.8 -->
 <g id="group">
  <path id="Path" d="M91.033 22.14 L91.033 106.508 137.467 164.068 137.467 180.234 236.397 224.364 263.687 190.059 329.587 194.069 329.587 164.069 376.02 106.507 376.02 22.137 327.104 22.137 327.104 61.933 297.33 61.933 297.33 22.14 247.88 22.14 247.88 61.934 218.64 61.934 218.64 22.14 169.19 22.14 169.19 61.934 139.947 61.934 139.947 22.14 Z M137.467 200.697 L137.467 395.867 107.587 395.867 85.795 490.562 381.258 490.562 359.468 395.867 329.586 395.867 329.586 370.02 290.866 345.95 267.154 375.242 295.586 400.979 283.043 414.833 241.5 377.23 274.87 336.008 183.22 279.035 216.508 235.953 137.468 200.697 Z M292.48 219.807 L311.52 254.801 342.525 249.396 325.238 219.808 292.48 219.808 Z M359.162 229.895 L376.455 304.422 432.008 306.49 418.566 248.523 Z M223.692 257.223 L210.658 274.088 248.051 297.332 266.218 276.722 223.692 257.222 Z M296.807 270.279 L264.147 307.335 329.587 348.015 329.587 298.2 296.807 270.28 Z M381.961 322.024 L376.801 351.608 410.291 369.766 410.198 338.508 381.962 322.023 Z M461.871 328.952 L438.798 352.149 447.495 385.255 473.212 367.175 461.872 328.952 Z M396.021 397.944 L385.051 434.921 409.931 452.411 418.345 420.386 396.022 397.944 Z" fill="#ffffff" fill-opacity="1" stroke="none"/>
 </g>
</svg>
