<?xml version="1.0" encoding="UTF-8"?>
<svg width="512px" height="512px" viewBox="0 0 512 512" xmlns="http://www.w3.org/2000/svg" xmlns:xlink="http://www.w3.org/1999/xlink" version="1.1">
 <!-- Generated by Pixelmator Pro 2.0.8 -->
 <path id="Arrow-copy" d="M442.923 495 L394 426 425.311 426 425.311 370.989 460.535 370.989 460.535 426 491.846 426 Z" fill="#ffffff" fill-opacity="1" stroke="none"/>
 <g id="smart">
  <path id="Path" d="M256.3 17.95 C215.3 17.95 182.2 50.65 182.2 91.22 182.2 114.2 190.2 125 199 139 204.9 148.3 211 159.1 214.5 174.6 L297.5 174.6 C301 158.7 307.1 147.8 313 138.4 321.9 124.3 329.8 113.7 329.8 91.22 329.8 50.65 297 17.95 256.3 17.95 Z M114.2 25.65 L81 33.4 162.2 73.65 Z M397.8 25.65 L349.8 73.65 431 33.4 Z M210.5 77.2 L256 99.9 301.5 77.2 280.7 160.2 263.3 155.8 274.5 110.8 256 120.1 237.5 110.8 248.7 155.8 231.3 160.2 Z M64 94.03 L64 126.1 160 110 Z M448 94.03 L352 110 448 126 Z M334.2 142.3 L374.1 205.6 398.2 190.3 Z M177.8 142.4 L113.8 190.4 137.9 205.7 Z M216 189 L216 205 296 205 296 189 Z M250.4 217.3 C236.7 217.3 223.5 217.8 214.7 218.3 146.5 229 131.8 323.7 148 409.9 L171.6 409.9 170.6 304.5 189.2 304.3 C187.8 368 190.8 430.9 194.7 494 L246.1 494 246.1 388.3 264.8 388.3 264.8 494 315.2 494 C319.7 429 321.1 362.5 321.7 304.3 L340.4 304.5 339.3 409.9 363.9 409.9 C382.2 321.4 359.1 231 296.8 219.3 287.4 217.9 271.9 217.3 256.2 217.3 Z" fill="#ffffff" fill-opacity="1" stroke="none"/>
 </g>
</svg>
