<?xml version="1.0" encoding="UTF-8"?>
<svg width="512px" height="512px" viewBox="0 0 512 512" xmlns="http://www.w3.org/2000/svg" xmlns:xlink="http://www.w3.org/1999/xlink" version="1.1">
 <!-- Generated by Pixelmator Pro 2.0.8 -->
 <g id="group">
  <path id="Path" d="M257.375 20.313 C243.957 20.313 231.305 27.998 221.437 42.063 211.569 56.127 205.094 76.331 205.094 98.813 205.094 121.293 211.569 141.467 221.438 155.531 231.306 169.597 243.958 177.281 257.375 177.281 270.793 177.281 283.413 169.597 293.281 155.531 303.151 141.468 309.657 121.295 309.657 98.813 309.657 76.333 303.151 56.128 293.282 42.063 283.415 27.999 270.795 20.313 257.377 20.313 Z M107.125 63.375 C86.82 63.949 83.129 77.267 75.345 92.405 52.047 137.709 19.781 257.155 19.781 257.155 L180.251 251.719 209.376 389.312 186.596 495.342 335.689 495.342 313.407 389.342 337.657 251.842 495.187 257.155 C495.189 257.155 462.923 137.708 439.627 92.405 431.84 77.265 428.15 63.948 407.845 63.375 389.947 63.375 375.439 78.927 375.439 98.093 375.439 117.259 389.947 132.813 407.845 132.813 411.573 132.813 415.103 131.929 418.439 130.687 L426.376 205.093 309.437 165 C309.152 165.42 308.885 165.867 308.594 166.28 296.158 184.004 277.99 195.97 257.374 195.97 236.76 195.97 218.592 184.004 206.156 166.28 205.879 165.885 205.616 165.464 205.344 165.062 L88.594 205.094 96.531 130.688 C99.868 131.93 103.398 132.813 107.126 132.813 125.024 132.813 139.532 117.26 139.532 98.093 139.532 78.928 125.025 63.375 107.127 63.375 Z" fill="#ffffff" fill-opacity="1" stroke="none"/>
 </g>
 <path id="Arrow-copy" d="M442.923 495 L394 426 425.311 426 425.311 370.989 460.535 370.989 460.535 426 491.846 426 Z" fill="#ffffff" fill-opacity="1" stroke="none"/>
</svg>
