<?xml version="1.0" encoding="UTF-8"?>
<svg width="512px" height="512px" viewBox="0 0 512 512" xmlns="http://www.w3.org/2000/svg" xmlns:xlink="http://www.w3.org/1999/xlink" version="1.1">
 <!-- Generated by Pixelmator Pro 2.0.8 -->
 <g id="group">
  <path id="Path" d="M18.78 19.5 L18.78 99.156 C63.464 104.738 100.297 124.122 135.437 146.312 L110.687 166.375 212.47 218.28 184.53 106.5 158.625 127.5 C138.4 87.49 115.847 49.77 85.875 19.5 Z M296.156 19.5 C280.532 48.265 266.949 77.626 254.376 107.656 L224.186 101.25 250.126 213.5 317.186 121 287.594 114.72 C320.884 79.973 355.191 46.927 395.656 19.5 Z M493.656 113.344 C455.668 115.826 421.616 133.021 388.626 154.25 L376.156 121.72 296.094 204.563 410.188 210.5 396.938 175.937 C429.178 175.003 461.416 177.764 493.656 197.312 Z M299.626 241.374 C294.346 241.494 289.416 243.79 282.688 250.969 L276.125 257.937 269.312 251.217 C261.925 243.937 256.096 241.927 250.187 242.187 244.279 242.447 237.332 245.554 229.562 251.843 L223.344 256.873 217.438 251.499 C208.538 243.447 200.953 241.061 193.688 241.436 188.4 241.71 182.913 243.702 177.438 247.186 L218.406 320.874 C233.86 330.326 265.439 333.881 287.156 322.937 L326.75 249.593 C319.24 246.531 312.49 243.391 306.656 242.187 304.544 241.75 302.584 241.431 300.686 241.374 300.332 241.364 299.976 241.366 299.626 241.374 Z M209.656 337.564 C191.621 350.306 177.14 372.282 171.531 404.469 166.096 435.665 174.659 456.734 189.813 471.093 204.968 485.453 227.715 492.83 250.813 492.53 273.913 492.23 296.949 484.22 312.438 469.594 327.928 454.967 336.688 434.168 331.72 404.406 326.583 373.649 313.32 352.258 296.53 339.312 268.048 354.368 232.436 351.168 209.656 337.562 Z" fill="#ffffff" fill-opacity="1" stroke="none"/>
 </g>
</svg>
