<?xml version="1.0" encoding="UTF-8"?>
<svg width="512px" height="512px" viewBox="0 0 512 512" xmlns="http://www.w3.org/2000/svg" xmlns:xlink="http://www.w3.org/1999/xlink" version="1.1">
 <!-- Generated by Pixelmator Pro 2.0.8 -->
 <g id="group">
  <path id="Path" d="M268.383 22.168 L212.465 106.65 242.182 110.383 C232.962 140.513 231.087 161.261 233.297 202.503 247.435 200.273 258.857 199.478 273.883 203.893 264.006 167.053 265.039 154.466 269.003 114.125 L301.625 116.402 Z M486.865 24.378 L378.505 54.408 399.42 80.383 C349.908 111.402 319.089 135.931 294.68 203.547 307.881 203.395 322.778 206.468 338.854 212.551 344.582 167.885 372.594 136.411 418.156 103.633 L438.139 128.449 486.865 24.379 Z M23.291 26.688 L89.17 129.173 108.254 100.462 C143.808 132.902 166.399 176.792 165.562 207.892 184.13 199.196 195.489 198.365 215.297 204.114 207.192 172.911 171.72 95.392 123.658 75.011 L140.228 48.974 23.292 26.687 Z M299.408 241.355 C294.128 241.475 289.198 243.77 282.471 250.949 L275.906 257.918 269.094 251.198 C261.707 243.918 255.878 241.908 249.969 242.168 244.061 242.428 237.114 245.535 229.344 251.824 L223.127 256.854 217.221 251.48 C208.321 243.428 200.736 241.041 193.471 241.416 188.183 241.69 182.696 243.682 177.221 247.166 L218.187 320.856 C233.641 330.307 265.221 333.862 286.937 322.918 L326.531 249.574 C319.021 246.512 312.271 243.372 306.437 242.168 304.325 241.731 302.367 241.412 300.469 241.355 300.115 241.345 299.759 241.347 299.409 241.355 Z M209.438 337.543 L209.438 337.545 C191.403 350.287 176.922 372.262 171.313 404.449 165.878 435.645 174.442 456.715 189.596 471.074 204.751 485.434 227.498 492.81 250.596 492.51 273.696 492.21 296.732 484.2 312.221 469.574 327.711 454.947 336.47 434.149 331.502 404.387 326.365 373.63 313.102 352.239 296.312 339.293 267.83 354.349 232.217 351.149 209.437 337.543 Z" fill="#ffffff" fill-opacity="1" stroke="none"/>
 </g>
</svg>
