<?xml version="1.0" encoding="UTF-8"?>
<svg width="512px" height="512px" viewBox="0 0 512 512" xmlns="http://www.w3.org/2000/svg" xmlns:xlink="http://www.w3.org/1999/xlink" version="1.1">
 <!-- Generated by Pixelmator Pro 1.8 -->
 <g id="group">
  <path id="Path" d="M249.9 19.9 C226 22.89 204.6 50.55 204.6 86.89 204.6 106.8 211.4 124.3 221.4 136.5 L233.6 151 214.9 154.5 C201.9 157 192.3 164 184.2 175.3 175.7 186.8 169.4 202.2 165.1 220.5 157.1 253.2 155.2 293.2 155.2 328.7 L198.8 328.7 210.5 489.2 C240.9 496.2 273.6 495.7 302.8 489.2 L313.5 328.7 355 328.7 C355 293 354.5 252.3 347.2 219 343.3 201.1 337.2 185.3 329 173.9 320.8 162.8 310.5 156.1 295.7 153.8 L276.8 150.8 288.7 135.9 C298.6 123.8 305.1 106.3 305.1 86.89 305.1 48.35 281.1 19.9 254.8 19.9 L249.9 19.9 Z M394.9 23.49 L394.9 65.34 353.1 65.34 353.1 115.5 394.9 115.5 394.9 157.1 444.8 157.1 444.8 115.5 486.7 115.5 486.7 65.34 444.8 65.34 444.8 23.49 Z M51.92 63.89 L51.92 94.47 21.39 94.47 21.39 131.1 51.92 131.1 51.92 161.5 88.32 161.5 88.32 131.1 118.9 131.1 118.9 94.47 88.32 94.47 88.32 63.89 Z M91.63 200.7 L91.63 222.5 69.75 222.5 69.75 248.8 91.63 248.8 91.63 270.7 117.9 270.7 117.9 248.8 139.7 248.8 139.7 222.5 117.9 222.5 117.9 200.7 Z M446.7 263.1 L446.7 284.9 424.8 284.9 424.8 311.2 446.7 311.2 446.7 333.1 473 333.1 473 311.2 494.8 311.2 494.8 284.9 473 284.9 473 263.1 Z M139.2 362.5 L139.2 377.5 124.2 377.5 124.2 395.5 139.2 395.5 139.2 410.5 157.3 410.5 157.3 395.5 172.3 395.5 172.3 377.5 157.3 377.5 157.3 362.5 Z M369.2 408.3 L369.2 423.3 354.2 423.3 354.2 441.3 369.2 441.3 369.2 456.3 387.2 456.3 387.2 441.3 402.2 441.3 402.2 423.3 387.2 423.3 387.2 408.3 Z M48.32 432.8 L48.32 447.8 33.32 447.8 33.32 465.8 48.32 465.8 48.32 480.8 66.33 480.8 66.33 465.8 81.33 465.8 81.33 447.8 66.33 447.8 66.33 432.8 Z" fill="#ffffff" fill-opacity="1" stroke="none"/>
 </g>
</svg>
