<?xml version="1.0" encoding="UTF-8"?>
<svg width="512px" height="512px" viewBox="0 0 512 512" xmlns="http://www.w3.org/2000/svg" xmlns:xlink="http://www.w3.org/1999/xlink" version="1.1">
 <!-- Generated by Pixelmator Pro 2.0.5 -->
 <g id="group">
  <g id="group-1">
   <path id="Path" d="M107.376 28.002 C99.901 28.149 91.907 30.627 86.266 33.32 73.295 39.607 60.169 51.443 49.644 65.732 39.118 80.022 31.181 96.724 27.79 112.082 24.419 127.354 25.626 140.841 31.495 150.162 L120.673 268.023 C120.35 266.347 120.053 264.661 119.796 262.961 115.202 232.648 120.758 198.473 137.152 166.994 153.545 135.515 177.829 112.394 204.413 100.484 213.673 96.336 223.266 93.566 232.886 92.332 L122.841 31.902 C117.797 29.327 112.651 28.072 107.376 28.002 Z" fill="#ffffff" fill-opacity="1" stroke="none"/>
   <path id="Path-1" d="M245.532 109.952 C234.503 109.814 223.052 112.366 211.722 117.442 189.062 127.592 167.347 147.955 152.663 176.15 137.979 204.346 133.263 234.74 137.179 260.578 141.095 286.417 153.306 307.352 172.583 318.73 183.781 325.34 196.286 328.082 209.241 327.234 204.044 314.512 199.946 301.569 199.4 287.916 209.704 267.948 220.202 247.98 235.095 228.011 258.041 220.788 282.219 223.478 310.13 224.621 313.852 208.016 314.465 191.631 312.21 176.758 308.294 150.919 296.083 129.984 276.806 118.605 267.168 112.916 256.562 110.089 245.533 109.951 Z" fill="#ffffff" fill-opacity="1" stroke="none"/>
   <path id="Path-2" d="M317.013 242.258 L249.517 246.121 267.886 307.953 334.146 304.238 C331.711 282.923 323.914 262.68 317.013 242.258 Z" fill="#7ed321" fill-opacity="1" stroke="none"/>
   <path id="Path-3" d="M236.347 257.453 C228.424 267.216 221.821 277.771 218.56 290.33 220.332 309.55 222.694 328.703 232.745 347.002 L251.135 316.872 Z" fill="#7ed321" fill-opacity="1" stroke="none"/>
   <path id="Path-4" d="M410.085 317.403 C385.481 328.662 366.386 340.839 347.263 353.012 L418.208 408.702 486.068 360.334 C463.354 345.152 438.412 330.714 410.085 317.402 Z" fill="#7ed321" fill-opacity="1" stroke="none"/>
   <path id="Path-5" d="M327.728 323.555 L265.62 326.475 247.189 356.197 C266.892 355.202 285.521 356.892 306.906 351.695 317.276 342.315 321.73 332.935 327.728 323.555 Z" fill="#7ed321" fill-opacity="1" stroke="none"/>
   <path id="Path-6" d="M342.622 372.156 C337.604 391.344 337.364 411.489 336.892 431.586 354.09 455.266 377.276 468.167 398.835 483.998 L407.493 421.766 Z" fill="#7ed321" fill-opacity="1" stroke="none"/>
   <path id="Path-7" d="M484.976 381.379 L426.003 423.877 417.123 480.373 C436.557 468.793 454.943 455.956 469.728 438.799 477.994 419.659 481.223 400.519 484.976 381.379 Z" fill="#7ed321" fill-opacity="1" stroke="none"/>
  </g>
 </g>
</svg>
