<?xml version="1.0" encoding="UTF-8"?>
<svg width="512px" height="512px" viewBox="0 0 512 512" xmlns="http://www.w3.org/2000/svg" xmlns:xlink="http://www.w3.org/1999/xlink" version="1.1">
 <!-- Generated by Pixelmator Pro 2.0.5 -->
 <g id="group">
  <g id="group-1">
   <path id="Path" d="M100.667 52.72 L100.48 53.416 C100.098 55.363 100.254 56.523 101.052 57.855 L118.599 88.273 179.444 53.144 161.831 22.801 C161.064 21.384 160.198 20.687 158.3 20.085 156.426 19.396 153.51 19.081 149.918 19.516 142.78 20.212 133.283 23.631 124.703 28.599 116.122 33.568 108.416 40.075 104.174 45.926 102.333 48.415 101.179 50.808 100.649 52.716 Z" fill="none" stroke="none"/>
   <path id="Path-1" d="M26.265 331.503 L75.745 417.204 86.66 410.896 69.13 380.519 83.181 372.414 100.762 402.776 124.034 389.296 106.535 358.974 120.644 350.829 138.134 381.184 161.403 367.713 129.543 312.402 143.652 304.257 175.512 359.567 198.88 346.076 181.293 315.74 195.402 307.594 212.989 337.93 236.247 324.502 218.746 294.189 232.856 286.043 250.356 316.356 273.701 302.951 241.754 247.617 255.863 239.471 287.81 294.805 311.092 281.29 293.591 250.978 307.7 242.832 325.201 273.145 348.545 259.74 330.981 229.317 345.09 221.171 362.655 251.594 385.912 238.166 353.965 182.832 368.074 174.686 400.021 230.02 423.303 216.505 405.802 186.193 419.911 178.047 437.412 208.359 460.757 194.955 443.192 164.532 457.301 156.386 474.866 186.809 485.778 180.509 436.267 94.752 Z" fill="#ffffff" fill-opacity="1" stroke="none"/>
   <path id="Path-2" d="M126.716 102.281 L133.025 113.196 143.938 106.896 157.98 98.825 168.892 92.525 182.891 84.442 193.804 78.142 187.503 67.23 Z" fill="none" stroke="none"/>
   <path id="Path-3" d="M141.125 127.199 L192.739 216.687 203.652 210.387 152.063 120.906 Z" fill="none" stroke="none"/>
   <path id="Path-4" d="M166.062 112.824 L217.761 202.241 228.586 195.918 176.975 106.523 Z" fill="none" stroke="none"/>
   <path id="Path-5" d="M190.973 98.441 L242.672 187.859 253.585 181.558 201.886 92.141 Z" fill="none" stroke="none"/>
   <path id="Path-6" d="M258.415 330.442 L324.747 445.229 335.659 438.928 269.328 324.141 Z" fill="none" stroke="none"/>
   <path id="Path-7" d="M283.414 316.082 L349.665 430.82 360.575 424.528 294.326 309.782 Z" fill="none" stroke="none"/>
   <path id="Path-8" d="M308.348 301.613 L374.574 416.446 385.486 410.146 319.261 295.313 Z" fill="none" stroke="none"/>
   <path id="Path-9" d="M336.457 457.162 L359.974 474.757 393.484 455.41 390.018 426.268 382.743 430.468 368.653 438.545 357.74 444.845 343.734 452.953 Z" fill="none" stroke="none"/>
   <path id="Path-10" d="M374.103 485.316 L399.328 504.188 395.593 472.924 Z" fill="none" stroke="none"/>
  </g>
 </g>
</svg>
