<?xml version="1.0" encoding="UTF-8"?>
<svg width="512px" height="512px" viewBox="0 0 512 512" xmlns="http://www.w3.org/2000/svg" xmlns:xlink="http://www.w3.org/1999/xlink" version="1.1">
 <!-- Generated by Pixelmator Pro 2.0.8 -->
 <g id="group">
  <path id="Path" d="M87 32 L87 103 105 103 105 32 Z M247 32 L247 377 265 377 265 32 Z M407 32 L407 199 425 199 425 32 Z M50 121 C44.86 121 41 124.9 41 130 L41 158 C41 163.1 44.86 167 50 167 L142 167 C147.1 167 151 163.1 151 158 L151 130 C151 124.9 147.1 121 142 121 Z M87 185 L87 480 105 480 105 185 Z M370 217 C364.9 217 361 220.9 361 226 L361 254 C361 259.1 364.9 263 370 263 L462 263 C467.1 263 471 259.1 471 254 L471 226 C471 220.9 467.1 217 462 217 Z M407 281 L407 480 425 480 425 281 Z M210 395 C204.9 395 201 398.9 201 404 L201 432 C201 437.1 204.9 441 210 441 L302 441 C307.1 441 311 437.1 311 432 L311 404 C311 398.9 307.1 395 302 395 Z M247 459 L247 480 265 480 265 459 Z" fill="#ffffff" fill-opacity="1" stroke="none"/>
 </g>
</svg>
