<?xml version="1.0" encoding="UTF-8"?>
<svg width="512px" height="512px" viewBox="0 0 512 512" xmlns="http://www.w3.org/2000/svg" xmlns:xlink="http://www.w3.org/1999/xlink" version="1.1">
 <!-- Generated by Pixelmator Pro 2.0.8 -->
 <path id="Arrow-copy" d="M442.923 495 L394 426 425.311 426 425.311 370.989 460.535 370.989 460.535 426 491.846 426 Z" fill="#ffffff" fill-opacity="1" stroke="none"/>
 <g id="sprint">
  <path id="Path" d="M167.53 20.344 L257.345 92 335 96.28 333.97 114.937 172.594 106.031 53.814 101.126 281.094 169.156 83.374 415.906 68.844 398.251 19.624 494.876 268.314 292.096 320.124 303.688 281.344 344.282 268.5 333.5 211.22 417.625 442.843 277.47 326 245.06 426.22 163.342 C427.352 163.802 428.52 164.24 429.72 164.562 453.044 170.81 479.484 147.727 488.78 113.029 498.078 78.334 486.7 45.155 463.375 38.905 440.05 32.655 413.61 55.707 404.312 90.405 402.845 95.881 401.909 101.323 401.437 106.625 L167.53 20.343 Z" fill="#ffffff" fill-opacity="1" stroke="none"/>
 </g>
</svg>
