<svg width="512" height="512" viewBox="0 0 512 512" xmlns="http://www.w3.org/2000/svg" xmlns:xlink="http://www.w3.org/1999/xlink">
    <g id="Group">
        <g id="g1">
            <path id="Path" fill="#ffffff" stroke="none" d="M 303.296997 42.269012 C 301.756989 42.294006 300.264008 42.346008 298.821014 42.427002 C 287.270996 43.075989 279.398987 45.902008 276.351013 48.86499 L 18.923 299.087006 L 184.807007 469.75 L 442.237 219.528015 C 445.283997 216.565002 448.333008 208.778015 449.30899 197.25 C 450.285004 185.723022 449.515991 170.962006 447.664001 155.002014 C 446.05899 141.161987 443.673004 126.526001 441.066986 112.041992 C 428.076996 121.552002 412.96701 128.625 392.816986 132.264008 C 395.350006 145.473999 391.074005 159.072021 381.437012 168.455017 C 365.596008 183.85199 340.27301 183.492981 324.875 167.653015 C 309.47699 151.812012 309.837006 126.488007 325.678009 111.089996 C 333.429993 103.554993 343.903015 99.479004 354.709015 99.790009 C 365.110992 100.088989 374.987 104.431 382.240997 111.893005 C 383.307007 113.001007 384.308014 114.169983 385.239014 115.393005 C 409.354004 112.164001 423.484009 104.260986 437.347992 92.067017 C 435.457001 82.196991 433.571991 72.59201 431.877991 63.643005 C 404.321991 57.610992 370.835999 49.593994 341.006012 45.272003 C 329.080994 43.544006 317.811005 42.442017 308.049011 42.273987 C 306.421997 42.246002 304.837006 42.243988 303.296997 42.269989 Z"/>
            <path id="path1" fill="#ffffff" stroke="none" d="M 462.765991 77.105011 C 459.376007 77.279999 455.993011 78.549011 453.424011 80.388 C 454.681 86.838989 455.914001 93.294006 457.123993 99.752991 L 462.450012 96.04599 C 462.717987 96.417999 462.899994 96.562988 463.214996 97.152008 C 465.863007 102.088989 469.011993 113.171997 471.127014 127.588989 C 475.358002 156.421997 476.471008 199.188995 472.975006 243.748993 C 469.479004 288.30899 461.35199 334.817993 447.713013 371.373993 C 434.074005 407.931 415.098999 433.359985 392.26001 439.864014 C 383.996002 442.217987 380.049988 440.846985 375.457001 436.294006 C 370.864014 431.742004 366.421997 422.61499 363.403015 410.095001 C 358.287994 388.888 356.946014 358.678009 357.877014 326.626007 L 339.540985 344.450012 C 339.473999 370.424011 341.174011 394.697998 345.904999 414.313995 C 349.347992 428.591003 354.287994 440.654999 362.786987 449.07901 C 371.286987 457.502991 384.145996 460.893005 397.191986 457.177002 C 428.925995 448.139008 450.019012 416.683014 464.575989 377.665009 C 479.134003 338.64801 487.332001 290.894012 490.920013 245.156982 C 494.509003 199.421021 493.46701 155.85498 488.936005 124.976013 C 486.670013 109.536011 483.786011 97.419983 479.078003 88.643982 C 476.725006 84.255981 473.860992 80.184998 468.565002 78.016998 C 467.240997 77.475006 465.82901 77.184998 464.390991 77.106995 C 463.851013 77.076996 463.30899 77.076996 462.765991 77.105011 Z"/>
            <path id="path2" fill="#ffffff" stroke="none" d="M 293.100006 187.796021 L 305.648987 200.701996 L 276.269012 229.265015 C 282.463989 236.21698 287.705994 243.518005 291.979004 251.173004 C 297.07901 260.27301 300.734009 269.643005 302.938995 279.292999 L 286.028992 295.505005 C 285.080994 284.545013 282.531006 274.380005 278.377014 265.009003 C 274.222992 255.639008 268.46701 247.11499 261.106995 239.438995 C 246.602005 224.307983 231.684006 216.778992 216.356003 216.848999 C 201.080002 216.975006 185.498993 224.653015 169.612 239.884003 C 153.776993 255.065002 145.475006 270.283997 144.705002 285.540009 C 143.988998 300.85199 150.882996 316.074005 165.389008 331.20401 C 171.054001 337.114014 176.582001 341.93399 181.973007 345.666992 C 187.416 349.351013 192.932999 352.062988 198.526001 353.802002 L 230.065002 323.56601 L 203.860001 296.230011 L 216.914001 283.713989 L 259.003998 327.614014 L 208.587997 375.949005 C 198.042007 373.658997 187.908997 369.701996 178.190002 364.076996 C 169.518005 358.987 161.330002 352.614014 153.621002 344.980011 L 127.794998 369.61499 L 115.371002 356.588989 L 141.673996 331.501007 C 129.393997 315.464996 123.335999 298.811005 123.510002 281.537994 C 123.830002 260.355011 133.559998 240.588013 152.697998 222.23999 C 171.287994 204.416016 190.787994 195.52002 211.195999 195.548004 C 211.854004 195.549011 212.511993 195.559998 213.171997 195.578979 C 230.862 196.102997 247.612 203.143005 263.425995 216.64801 Z"/>
        </g>
    </g>
</svg>
