<?xml version="1.0" encoding="UTF-8"?>
<svg width="512px" height="512px" viewBox="0 0 512 512" xmlns="http://www.w3.org/2000/svg" xmlns:xlink="http://www.w3.org/1999/xlink" version="1.1">
 <!-- Generated by Pixelmator Pro 2.0.8 -->
 <g id="group">
  <g id="group-1">
   <path id="Path" d="M303.297 42.269 C301.757 42.294 300.264 42.346 298.821 42.427 287.271 43.076 279.399 45.902 276.351 48.865 L18.923 299.087 184.807 469.75 442.237 219.528 C445.284 216.565 448.333 208.778 449.309 197.25 450.285 185.723 449.516 170.962 447.664 155.002 446.059 141.162 443.673 126.526 441.067 112.042 428.077 121.552 412.967 128.625 392.817 132.264 395.35 145.474 391.074 159.072 381.437 168.455 365.596 183.852 340.273 183.493 324.875 167.653 309.477 151.812 309.837 126.488 325.678 111.09 333.43 103.555 343.903 99.479 354.709 99.79 365.111 100.089 374.987 104.431 382.241 111.893 383.307 113.001 384.308 114.17 385.239 115.393 409.354 112.164 423.484 104.261 437.348 92.067 435.457 82.197 433.572 72.592 431.878 63.643 404.322 57.611 370.836 49.594 341.006 45.272 329.081 43.544 317.811 42.442 308.049 42.274 306.422 42.246 304.837 42.244 303.297 42.27 Z" fill="#ffffff" fill-opacity="1" stroke="none"/>
   <path id="Path-1" d="M462.766 77.105 C459.376 77.28 455.993 78.549 453.424 80.388 454.681 86.839 455.914 93.294 457.124 99.753 L462.45 96.046 C462.718 96.418 462.9 96.563 463.215 97.152 465.863 102.089 469.012 113.172 471.127 127.589 475.358 156.422 476.471 199.189 472.975 243.749 469.479 288.309 461.352 334.818 447.713 371.374 434.074 407.931 415.099 433.36 392.26 439.864 383.996 442.218 380.05 440.847 375.457 436.294 370.864 431.742 366.422 422.615 363.403 410.095 358.288 388.888 356.946 358.678 357.877 326.626 L339.541 344.45 C339.474 370.424 341.174 394.698 345.905 414.314 349.348 428.591 354.288 440.655 362.787 449.079 371.287 457.503 384.146 460.893 397.192 457.177 428.926 448.139 450.019 416.683 464.576 377.665 479.134 338.648 487.332 290.894 490.92 245.157 494.509 199.421 493.467 155.855 488.936 124.976 486.67 109.536 483.786 97.42 479.078 88.644 476.725 84.256 473.861 80.185 468.565 78.017 467.241 77.475 465.829 77.185 464.391 77.107 463.851 77.077 463.309 77.077 462.766 77.105 Z" fill="#ffffff" fill-opacity="1" stroke="none"/>
   <path id="Path-2" d="M293.1 187.796 L305.649 200.702 276.269 229.265 C282.464 236.217 287.706 243.518 291.979 251.173 297.079 260.273 300.734 269.643 302.939 279.293 L286.029 295.505 C285.081 284.545 282.531 274.38 278.377 265.009 274.223 255.639 268.467 247.115 261.107 239.439 246.602 224.308 231.684 216.779 216.356 216.849 201.08 216.975 185.499 224.653 169.612 239.884 153.777 255.065 145.475 270.284 144.705 285.54 143.989 300.852 150.883 316.074 165.389 331.204 171.054 337.114 176.582 341.934 181.973 345.667 187.416 349.351 192.933 352.063 198.526 353.802 L230.065 323.566 203.86 296.23 216.914 283.714 259.004 327.614 208.588 375.949 C198.042 373.659 187.909 369.702 178.19 364.077 169.518 358.987 161.33 352.614 153.621 344.98 L127.795 369.615 115.371 356.589 141.674 331.501 C129.394 315.465 123.336 298.811 123.51 281.538 123.83 260.355 133.56 240.588 152.698 222.24 171.288 204.416 190.788 195.52 211.196 195.548 211.854 195.549 212.512 195.56 213.172 195.579 230.862 196.103 247.612 203.143 263.426 216.648 Z" fill="#ffffff" fill-opacity="1" stroke="none"/>
  </g>
 </g>
</svg>
