<?xml version="1.0" encoding="UTF-8"?>
<svg width="512px" height="512px" viewBox="0 0 512 512" xmlns="http://www.w3.org/2000/svg" xmlns:xlink="http://www.w3.org/1999/xlink" version="1.1">
 <!-- Generated by Pixelmator Pro 2.0.8 -->
 <g id="group">
  <path id="Path" d="M115.063 21.97 L115.063 31.313 C115.063 133.266 153.221 220.961 211.406 253.406 L211.406 259.5 C153.22 291.945 115.062 379.64 115.062 481.594 L115.062 490.938 401.81 490.938 401.81 481.594 C401.81 379.042 363.006 291.32 304.28 259.406 L304.28 253.5 C363.002 221.583 401.81 133.86 401.81 31.312 L401.81 21.97 115.06 21.97 Z M134 40.655 L382.875 40.655 C380.398 137.1 340.133 216.178 290.937 239.561 L285.594 242.093 285.594 270.844 290.938 273.374 C340.131 296.757 380.394 375.812 382.875 472.25 L134 472.25 C136.456 376.352 176.125 297.172 224.875 273.312 L230.125 270.75 230.125 242.156 224.875 239.594 C176.127 215.734 136.455 136.554 134 40.656 Z M347.656 126.78 C290.049 154.59 223.13 154.62 170.094 130.875 184.748 181.78 213.91 218.012 248.22 224 246.68 226.047 245.75 228.585 245.75 231.344 245.75 238.104 251.238 243.594 258 243.594 264.762 243.594 270.25 238.104 270.25 231.344 270.25 228.624 269.343 226.126 267.844 224.094 303.27 218.214 333.332 180.024 347.656 126.781 Z M258 258.626 C251.238 258.626 245.75 264.114 245.75 270.876 245.75 277.638 251.238 283.126 258 283.126 264.762 283.126 270.25 277.638 270.25 270.876 270.25 264.114 264.762 258.626 258 258.626 Z M258 297.906 C251.238 297.906 245.75 303.396 245.75 310.156 245.75 316.919 251.238 322.406 258 322.406 264.762 322.406 270.25 316.919 270.25 310.156 270.25 303.396 264.762 297.906 258 297.906 Z M258 337.439 C251.238 337.439 245.75 342.927 245.75 349.689 245.75 356.449 251.238 361.939 258 361.939 264.762 361.939 270.25 356.449 270.25 349.689 270.25 342.927 264.762 337.439 258 337.439 Z M258.125 377.345 C234.915 377.625 211.935 403.115 182.312 453.001 L335.312 453.001 C304.789 401.998 281.335 377.065 258.125 377.345 Z" fill="#ffffff" fill-opacity="1" stroke="none"/>
 </g>
</svg>
