<?xml version="1.0" encoding="UTF-8"?>
<svg width="512px" height="512px" viewBox="0 0 512 512" xmlns="http://www.w3.org/2000/svg" xmlns:xlink="http://www.w3.org/1999/xlink" version="1.1">
 <!-- Generated by Pixelmator Pro 2.0.8 -->
 <g id="group">
  <g id="group-1">
   <path id="Path" d="M257.78 19.438 C129.86 19.454 26.03 123.293 26.03 251.218 26.03 306.952 45.74 357.994 78.562 397.938 L57.75 434.094 190.156 434.094 123.844 319.374 101.469 358.374 C80.569 327.896 68.405 290.932 68.405 251.219 68.405 146.696 153.259 61.843 257.78 61.843 362.303 61.843 447.188 146.696 447.188 251.218 447.188 290.326 435.508 326.882 415.188 357.092 L393.313 319.372 327 434.095 459.406 434.095 437.812 396.625 C470.037 356.845 489.562 306.372 489.562 251.22 489.562 123.293 385.735 19.454 257.812 19.438 L257.782 19.438 Z" fill="#ffffff" fill-opacity="1" stroke="none"/>
   <path id="Path-1" d="M257.125 94.906 C207.597 94.859 146.651 124.138 128.719 199.844 L189.469 214.156 C216.434 137.914 280.339 143.332 302.779 185.531 329.554 235.877 213.092 292.814 218.655 375.938 L296.343 375.938 C302.833 277.794 415.316 252.448 355.905 146.408 337.963 114.38 301 96.572 261.876 95.03 L261.876 95 C260.303 94.938 258.723 94.908 257.126 94.906 Z" fill="none" stroke="none"/>
   <path id="Path-2" d="M258.5 395.97 C231.55 395.97 209.906 417.614 209.906 444.562 209.906 471.512 231.551 493.156 258.5 493.156 285.45 493.156 307.094 471.511 307.094 444.562 307.094 417.614 285.449 395.969 258.5 395.969 Z" fill="none" stroke="none"/>
  </g>
 </g>
 <g id="price-tag">
  <g id="group-2">
   <path id="Path-3" d="M267.96 389.004 C267.64 389.009 267.33 389.02 267.031 389.036 264.633 389.171 262.999 389.758 262.366 390.373 L208.923 442.32 243.361 477.75 296.804 425.803 C297.437 425.188 298.07 423.571 298.272 421.178 298.475 418.785 298.315 415.721 297.931 412.407 297.598 409.534 297.102 406.496 296.561 403.489 293.865 405.463 290.728 406.931 286.545 407.687 287.07 410.429 286.183 413.252 284.182 415.2 280.893 418.397 275.636 418.322 272.44 415.034 269.243 411.745 269.318 406.488 272.606 403.291 274.216 401.727 276.39 400.881 278.633 400.945 280.793 401.007 282.843 401.909 284.349 403.458 284.57 403.688 284.778 403.93 284.971 404.184 289.978 403.514 292.911 401.873 295.789 399.342 295.397 397.293 295.005 395.299 294.654 393.441 288.933 392.189 281.981 390.524 275.788 389.627 273.313 389.268 270.973 389.039 268.946 389.005 268.609 388.999 268.28 388.998 267.96 389.004 Z" fill="#ffffff" fill-opacity="1" stroke="none"/>
   <path id="Path-4" d="M301.066 396.236 C300.362 396.272 299.66 396.535 299.127 396.917 299.388 398.256 299.644 399.597 299.895 400.937 L301.001 400.168 C301.056 400.245 301.094 400.275 301.159 400.397 301.709 401.422 302.363 403.723 302.802 406.716 303.68 412.702 303.911 421.581 303.186 430.831 302.46 440.082 300.773 449.738 297.941 457.327 295.11 464.916 291.17 470.195 286.429 471.546 284.713 472.034 283.894 471.75 282.941 470.804 281.987 469.859 281.065 467.965 280.438 465.365 279.376 460.963 279.098 454.691 279.291 448.037 L275.484 451.737 C275.47 457.13 275.823 462.169 276.805 466.241 277.52 469.205 278.546 471.71 280.31 473.459 282.075 475.207 284.744 475.911 287.453 475.14 294.041 473.263 298.42 466.733 301.442 458.633 304.464 450.533 306.166 440.619 306.911 431.124 307.656 421.629 307.44 412.584 306.499 406.174 306.029 402.968 305.43 400.453 304.453 398.631 303.964 397.72 303.37 396.875 302.27 396.425 301.995 396.312 301.702 396.252 301.404 396.236 301.291 396.23 301.179 396.23 301.066 396.236 Z" fill="#ffffff" fill-opacity="1" stroke="none"/>
   <path id="Path-5" d="M265.843 419.215 L268.448 421.895 262.349 427.825 C263.635 429.268 264.723 430.784 265.61 432.373 266.669 434.262 267.428 436.207 267.886 438.211 L264.375 441.576 C264.178 439.301 263.649 437.191 262.786 435.245 261.924 433.3 260.729 431.53 259.201 429.937 256.19 426.795 253.093 425.232 249.911 425.247 246.739 425.273 243.505 426.867 240.207 430.029 236.919 433.181 235.196 436.34 235.036 439.507 234.887 442.686 236.318 445.846 239.33 448.987 240.506 450.214 241.654 451.215 242.773 451.99 243.903 452.755 245.048 453.318 246.209 453.679 L252.757 447.402 247.316 441.727 250.027 439.128 258.765 448.242 248.298 458.277 C246.109 457.801 244.005 456.98 241.987 455.812 240.187 454.755 238.487 453.432 236.887 451.847 L231.525 456.962 228.946 454.257 234.406 449.049 C231.857 445.72 230.599 442.263 230.636 438.677 230.702 434.279 232.722 430.175 236.695 426.366 240.554 422.666 244.603 420.819 248.839 420.825 248.976 420.825 249.113 420.827 249.25 420.831 252.922 420.94 256.4 422.402 259.683 425.205 Z" fill="#ffffff" fill-opacity="1" stroke="none"/>
  </g>
 </g>
 <g id="battle-gear">
  <path id="Path-6" d="M260.868 111.529 C247.262 115.939 233.867 125.531 224.69 139.287 233.46 163.23 233.46 167.91 224.69 191.852 234.648 199.582 244.837 204.229 255.073 205.584 254.042 192.805 253.259 180.025 255.636 167.248 248.825 166.507 243.952 164.252 237.14 160.313 L237.14 144.208 C255.069 153.754 268.053 153.594 286.534 144.208 L286.534 160.314 C279.854 163.562 275.594 165.893 268.914 166.921 270.72 179.702 270.653 192.49 269.601 205.272 278.921 203.64 288.215 199.217 297.344 191.853 290.169 167.91 290.168 163.23 297.344 139.288 288.855 125.288 273.624 115.977 260.868 111.529 Z M196.088 115.637 C183.138 170.83 182.416 223.275 182.391 281.056 172.974 280.288 163.605 278.497 154.385 275.497 L154.385 289.771 188.909 289.771 C193.266 307.279 192.144 324.788 188.391 342.296 L202.453 342.296 C198.856 324.788 198.335 307.279 202.017 289.771 L236.46 289.771 236.46 275.497 C227.217 277.967 217.837 279.772 208.419 280.726 208.46 223.27 209.666 169.22 196.088 115.637 Z M240.812 216.799 C240.812 275.419 253.567 333.44 300.874 345.751 352.952 335.236 361 275.58 361 216.798 L240.811 216.798 Z" fill="#ffffff" fill-opacity="1" stroke="none"/>
 </g>
</svg>
