<?xml version="1.0" encoding="UTF-8"?>
<svg width="512px" height="512px" viewBox="0 0 512 512" xmlns="http://www.w3.org/2000/svg" xmlns:xlink="http://www.w3.org/1999/xlink" version="1.1">
 <!-- Generated by Pixelmator Pro 2.0.8 -->
 <g id="group">
  <path id="Path" d="M298.9 24.31 C284 24.61 273.3 27.51 266.2 32.71 L168.9 84.81 114.8 158.4 C103.4 176 111.5 210 147.1 188.2 L186.1 136.8 C235.6 94.11 336.6 113.7 288.7 199.4 265.2 249 276.2 273.2 306.5 283.4 L320.3 237 C344.2 183.2 388.8 173.5 387 130.1 L494.2 137.8 493.2 25.71 298.9 24.31 Z M244.8 127.7 C227.4 127.4 210.3 134.6 197.9 145 L158.8 196.4 C169.5 204.9 180.3 200.3 191 190 203.6 196.4 213.4 186.5 221.4 166.7 224.7 153.2 229.6 143.7 244.8 127.7 Z M165.2 223.7 C164.8 223.7 164.3 223.7 163.9 223.8 160.6 224.5 156.7 228 154.1 236 151.4 244 150.8 255.4 153.2 267.6 155.6 279.7 160.6 290 166.2 296.4 171.6 302.7 176.6 304.5 179.9 303.8 183.3 303.2 187.1 299.6 189.7 291.7 192.4 283.7 193.1 272.2 190.7 260.1 188.2 247.9 183.2 237.6 177.7 231.3 172.9 225.7 168.5 223.7 165.2 223.7 Z M247.8 330.5 C239.9 330.6 230 333.1 220.3 337.8 209.2 343.3 200.5 350.9 195.8 357.9 191.1 364.8 190.7 370 192.2 373.1 193.7 376.1 198.1 379 206.5 379.4 214.9 379.9 226.2 377.6 237.3 372.1 248.4 366.6 257.1 359.1 261.8 352.1 266.5 345.2 266.9 339.9 265.4 336.9 263.9 333.8 259.5 331 251.1 330.6 250 330.5 249 330.5 247.8 330.5 Z M150.2 426.1 C145.5 426.2 141.2 426.9 137.4 428 128.9 430.5 124 435 122.4 440.3 120.7 445.7 122.4 452.1 128.1 459 133.9 465.8 143.6 472.3 155.6 475.9 167.5 479.5 179.1 479.4 187.7 476.8 196.3 474.3 201.2 469.8 202.8 464.5 204.4 459.1 202.8 452.7 197 445.8 191.3 439 181.6 432.5 169.6 428.9 162.8 426.9 156.2 426 150.2 426.1 Z" fill="#ffffff" fill-opacity="1" stroke="none"/>
 </g>
</svg>
