<?xml version="1.0" encoding="UTF-8"?>
<svg width="512px" height="512px" viewBox="0 0 512 512" xmlns="http://www.w3.org/2000/svg" xmlns:xlink="http://www.w3.org/1999/xlink" version="1.1">
 <!-- Generated by Pixelmator Pro 2.0.8 -->
 <g id="group">
  <path id="Path" d="M258 21.89 C257.5 21.89 256.8 21.89 256.2 22.01 251.6 22.86 246.1 27.11 242.5 36.82 238.7 46.52 237.9 60.35 241.2 75.16 244.6 89.79 251.6 102.4 259.4 110.1 267 117.8 273.9 119.9 278.5 119.1 283.3 118.4 288.6 114 292.2 104.4 296 94.76 297 80.74 293.6 66.05 290.1 51.25 283.2 38.76 275.4 31.11 268.8 24.31 262.7 21.89 258 21.89 Z M373.4 151.4 C362.4 151.7 348.5 154.6 335 160.3 319.4 167.1 307.4 176.2 300.8 184.8 294.2 193.1 293.6 199.4 295.7 203.1 297.9 206.8 304 210.3 315.7 210.8 327.4 211.5 343.2 208.6 358.7 202 374.2 195.3 386.4 186.1 393 177.7 399.6 169.4 400.1 162.9 398 159.2 395.9 155.4 389.7 152.1 378 151.7 376.4 151.4 375 151.4 373.4 151.4 Z M237.1 244.3 C230.5 244.4 224.5 245.2 219.1 246.6 207.3 249.6 200.5 255 198.3 261.5 195.8 268 198.3 275.8 206.1 284.2 214.3 292.4 227.8 300.3 244.6 304.7 261.3 309.1 277.4 309 289.4 305.8 301.5 302.7 308.3 297.2 310.5 290.8 312.8 284.3 310.5 276.6 302.4 268.1 294.5 259.9 281 252 264.2 247.7 254.7 245.2 245.4 244.2 237.1 244.3 Z M397.8 302.4 L336 331.7 C340.2 331.9 350.7 332.2 350.7 332.2 L357.3 340.9 412 312.4 Z M343.3 302.5 L285.9 329.7 C291.4 330 304.4 330.2 309.6 330.5 L359.4 306.9 Z M435.9 313.3 L365.4 350.7 379.9 369.4 454.4 324.8 Z M157.1 322.4 C154.072 322.394 151.053 322.73 148.1 323.4 76.6 339.9 34.4 341.3 21.9 341.3 L18 341.3 18 448.8 C18 448.8 29.6 447.1 48.9 447 86.2 447 151.9 453.4 215.9 490.8 219.3 492.9 226.6 493.7 235.7 493.7 260 493.7 296.9 487.9 305.4 484.7 391 452.6 494 364.5 494 364.5 L461.5 336.1 C461.5 336.1 381.7 387 371.6 391.9 280.5 436.6 206.7 408.7 206.7 408.7 206.7 408.7 326.6 411.7 365.1 381.4 L342.5 347.4 C342.5 347.4 259.7 345.1 230.2 341.2 214.8 339.2 181.5 322.4 157.1 322.4 Z" fill="#ffffff" fill-opacity="1" stroke="none"/>
 </g>
</svg>
